<svg width="332" height="1546" viewBox="0 0 332 1546" fill="none" xmlns="http://www.w3.org/2000/svg">
<path d="M-482.999 149.738C-329.05 237.922 -110.868 383.359 -119.879 296.323C-128.89 209.287 -234.89 378.137 -40.6568 417.981C153.577 457.826 28.0354 636.824 46.4767 725.712C64.918 814.601 132.085 825.06 176.144 902.937C238.188 1012.6 128.836 1031.98 159.079 1124.67" stroke="#FF4D40" stroke-linecap="round" stroke-dasharray="6 6"/>
<g clip-path="url(#clip0_502_124)">
<path d="M-163.184 380C-67.451 529.372 58.7661 759.207 91.0178 677.867C123.269 596.527 -48.7892 697.235 105.014 822.37C258.818 947.505 64.7396 1048.18 39.9932 1135.52C15.2468 1222.86 69.9677 1263.19 73.0274 1352.62C77.3363 1478.54 -28.5827 1445.16 -44.6227 1541.33" stroke="white" stroke-linecap="round" stroke-dasharray="6 6"/>
</g>
<defs>
<clipPath id="clip0_502_124">
<rect width="370" height="718" fill="white" transform="translate(-193 828)"/>
</clipPath>
</defs>
</svg>
