<svg xmlns="http://www.w3.org/2000/svg" xmlns:xlink="http://www.w3.org/1999/xlink" width="100%" height="100%" viewBox="0 0 307.08 307.08"><defs><linearGradient id="a" x1="-404.05" y1="190.4" x2="-390.38" y2="376.06" gradientTransform="matrix(-0.26, -0.96, -0.96, 0.26, 252.14, -290.46)" gradientUnits="userSpaceOnUse"><stop offset="0" stop-color="#ec5b4b"/><stop offset="1" stop-color="#ec5b4b" stop-opacity="0"/></linearGradient></defs><path d="M153.45,307.08h-1a.5.5,0,0,1-.5-.5.49.49,0,0,1,.51-.5h1c2,0,4,0,5.93-.12a.52.52,0,0,1,.52.48.5.5,0,0,1-.48.52C157.44,307,155.43,307.08,153.45,307.08Zm-8.06-.22h0c-2.34-.12-4.7-.3-7-.53a.5.5,0,0,1,.1-1c2.3.23,4.65.41,7,.53a.5.5,0,0,1,.47.53A.49.49,0,0,1,145.39,306.86Zm21-.34a.5.5,0,0,1,0-1c2.3-.2,4.63-.45,6.93-.76a.5.5,0,0,1,.13,1c-2.31.3-4.66.56-7,.75Zm-34.94-1h-.07c-2.31-.34-4.64-.74-6.94-1.18a.5.5,0,0,1,.19-1c2.28.44,4.6.83,6.89,1.17a.5.5,0,0,1,.42.57A.49.49,0,0,1,131.45,305.47Zm48.81-.77a.5.5,0,0,1-.08-1c2.27-.4,4.57-.87,6.84-1.38a.5.5,0,0,1,.22,1c-2.28.51-4.6,1-6.89,1.39Zm-62.57-1.89h-.11c-2.26-.55-4.55-1.16-6.79-1.81a.5.5,0,0,1-.34-.62.49.49,0,0,1,.62-.34c2.23.65,4.5,1.25,6.74,1.79a.5.5,0,0,1,.37.61A.49.49,0,0,1,117.69,302.81Zm76.23-1.2a.49.49,0,0,1-.48-.36.5.5,0,0,1,.35-.62c2.23-.61,4.48-1.28,6.68-2a.5.5,0,0,1,.63.32.49.49,0,0,1-.32.63c-2.22.72-4.48,1.39-6.73,2Zm-89.67-2.71a.41.41,0,0,1-.16,0c-2.2-.75-4.42-1.56-6.6-2.42a.5.5,0,1,1,.37-.93c2.16.85,4.36,1.66,6.55,2.4a.51.51,0,0,1,.31.64A.49.49,0,0,1,104.25,298.9Zm103-1.58a.49.49,0,0,1-.46-.33.49.49,0,0,1,.29-.64c2.17-.81,4.34-1.68,6.48-2.59a.5.5,0,0,1,.65.26.5.5,0,0,1-.26.66c-2.15.92-4.34,1.79-6.52,2.61Zm-116-3.54a.54.54,0,0,1-.21,0c-2.13-1-4.26-2-6.34-3a.5.5,0,0,1,.45-.89c2.06,1,4.18,2,6.3,3a.49.49,0,0,1,.25.66A.49.49,0,0,1,91.22,293.78Zm128.88-1.95a.52.52,0,0,1-.45-.28.5.5,0,0,1,.24-.67c2.09-1,4.18-2.08,6.21-3.17a.51.51,0,0,1,.68.2.5.5,0,0,1-.21.68c-2,1.1-4.14,2.18-6.25,3.19A.54.54,0,0,1,220.1,291.83ZM78.71,287.49a.53.53,0,0,1-.24-.06c-2-1.14-4.06-2.34-6-3.57a.51.51,0,0,1-.16-.69A.49.49,0,0,1,73,283c2,1.22,4,2.42,6,3.55a.5.5,0,0,1-.25.93Zm153.71-2.31a.49.49,0,0,1-.43-.24.5.5,0,0,1,.17-.69c2-1.19,4-2.44,5.9-3.72a.49.49,0,0,1,.69.13.51.51,0,0,1-.14.7c-1.94,1.29-3.93,2.55-5.93,3.75A.48.48,0,0,1,232.42,285.18ZM66.83,280.1a.57.57,0,0,1-.28-.08c-1.92-1.32-3.83-2.71-5.69-4.11a.5.5,0,0,1-.1-.7.51.51,0,0,1,.7-.1c1.85,1.4,3.75,2.77,5.66,4.08a.52.52,0,0,1,.13.7A.51.51,0,0,1,66.83,280.1Zm177.23-2.66a.51.51,0,0,1-.41-.2.51.51,0,0,1,.11-.7c1.87-1.37,3.72-2.8,5.52-4.25a.5.5,0,0,1,.7.07.52.52,0,0,1-.07.71c-1.81,1.46-3.68,2.89-5.56,4.27A.46.46,0,0,1,244.06,277.44ZM55.68,271.67a.47.47,0,0,1-.32-.12c-1.79-1.49-3.57-3-5.3-4.6a.5.5,0,0,1,0-.71.5.5,0,0,1,.71,0c1.71,1.56,3.48,3.1,5.26,4.57a.49.49,0,0,1,.06.7A.5.5,0,0,1,55.68,271.67Zm199.25-3a.49.49,0,0,1-.33-.87c1.73-1.53,3.45-3.13,5.1-4.74a.51.51,0,0,1,.71,0,.5.5,0,0,1,0,.71c-1.67,1.62-3.4,3.22-5.14,4.77A.52.52,0,0,1,254.93,268.66ZM45.34,262.25a.47.47,0,0,1-.35-.15c-1.65-1.64-3.28-3.34-4.85-5.06a.5.5,0,0,1,0-.71.51.51,0,0,1,.71,0c1.56,1.71,3.18,3.41,4.81,5a.48.48,0,0,1,0,.7A.47.47,0,0,1,45.34,262.25ZM265,258.93a.52.52,0,0,1-.35-.14.5.5,0,0,1,0-.71c1.58-1.68,3.15-3.42,4.66-5.18a.49.49,0,0,1,.7-.06.51.51,0,0,1,.06.71c-1.52,1.77-3.1,3.52-4.69,5.22A.52.52,0,0,1,265,258.93Zm-229-7a.51.51,0,0,1-.38-.18c-1.5-1.79-3-3.64-4.37-5.49a.51.51,0,0,1,.1-.7.49.49,0,0,1,.7.1c1.39,1.83,2.85,3.67,4.33,5.45a.5.5,0,0,1-.38.82Zm238.15-3.63a.45.45,0,0,1-.31-.11.5.5,0,0,1-.09-.7c1.43-1.83,2.83-3.71,4.17-5.59a.51.51,0,0,1,.69-.12.5.5,0,0,1,.12.7c-1.34,1.89-2.75,3.79-4.19,5.63A.52.52,0,0,1,274.06,248.31Zm-246.59-7.5a.49.49,0,0,1-.41-.22c-1.32-1.92-2.62-3.89-3.84-5.86a.5.5,0,1,1,.85-.53c1.22,2,2.5,3.91,3.81,5.82a.5.5,0,0,1-.13.7A.47.47,0,0,1,27.47,240.81Zm254.69-3.91a.43.43,0,0,1-.27-.08.49.49,0,0,1-.15-.69c1.24-1.93,2.47-3.93,3.64-5.94a.5.5,0,0,1,.68-.19.51.51,0,0,1,.18.69c-1.18,2-2.41,4-3.66,6A.52.52,0,0,1,282.16,236.9Zm-262.08-8a.49.49,0,0,1-.43-.26c-1.14-2-2.25-4.11-3.29-6.2a.49.49,0,0,1,.22-.67.5.5,0,0,1,.67.22c1,2.07,2.14,4.15,3.27,6.17a.5.5,0,0,1-.19.68A.54.54,0,0,1,20.08,228.94Zm269.11-4.13a.46.46,0,0,1-.23-.06.5.5,0,0,1-.22-.67c1.08-2.06,2.12-4.17,3.09-6.26a.5.5,0,0,1,.67-.24.5.5,0,0,1,.24.66c-1,2.11-2,4.23-3.11,6.3A.5.5,0,0,1,289.19,224.81ZM13.81,216.43a.49.49,0,0,1-.45-.29c-.95-2.13-1.86-4.31-2.71-6.48a.5.5,0,1,1,.93-.37c.85,2.16,1.75,4.33,2.69,6.44a.5.5,0,0,1-.25.66A.52.52,0,0,1,13.81,216.43Zm281.28-4.31a.46.46,0,0,1-.19,0,.51.51,0,0,1-.27-.65c.88-2.14,1.72-4.33,2.51-6.51a.5.5,0,1,1,.94.33c-.79,2.2-1.64,4.41-2.52,6.56A.51.51,0,0,1,295.09,212.12ZM8.72,203.4a.5.5,0,0,1-.48-.34c-.74-2.19-1.45-4.44-2.11-6.69a.5.5,0,0,1,.34-.62.49.49,0,0,1,.62.34c.65,2.23,1.36,4.47,2.1,6.65a.51.51,0,0,1-.31.64Zm291.1-4.46-.15,0a.51.51,0,0,1-.33-.63c.69-2.22,1.33-4.48,1.9-6.71a.5.5,0,0,1,1,.25c-.58,2.24-1.22,4.52-1.91,6.76A.5.5,0,0,1,299.82,198.94ZM5.92,194.25a.49.49,0,0,1-.48-.36c-.62-2.26-1.19-4.55-1.7-6.82a.5.5,0,1,1,1-.22c.5,2.25,1.07,4.53,1.68,6.77a.51.51,0,0,1-.35.62Zm297.41-8.87h-.11a.49.49,0,0,1-.38-.59c.47-2.26.9-4.57,1.28-6.87a.5.5,0,1,1,1,.16c-.37,2.31-.81,4.64-1.29,6.91A.48.48,0,0,1,303.33,185.38ZM2.85,180.6a.49.49,0,0,1-.49-.42c-.41-2.29-.77-4.63-1.07-6.94a.5.5,0,1,1,1-.13c.3,2.3.66,4.62,1.06,6.9a.5.5,0,0,1-.4.58Zm302.72-9h-.05a.5.5,0,0,1-.44-.56c.26-2.3.48-4.64.64-7a.5.5,0,0,1,.53-.47.51.51,0,0,1,.47.54c-.16,2.32-.38,4.68-.65,7A.51.51,0,0,1,305.57,171.55ZM1,166.72a.5.5,0,0,1-.5-.46c-.2-2.32-.34-4.68-.43-7a.51.51,0,0,1,.48-.52.51.51,0,0,1,.52.48c.09,2.32.23,4.66.43,7a.52.52,0,0,1-.46.54Zm305.5-9.15h0a.5.5,0,0,1-.49-.51c0-1.14,0-2.29,0-3.43s0-2.37-.05-3.56a.5.5,0,0,1,.49-.51.49.49,0,0,1,.51.49c0,1.19.05,2.39.05,3.58s0,2.3,0,3.45A.51.51,0,0,1,306.54,157.57ZM.5,152.73h0a.5.5,0,0,1-.5-.51c0-2.33.1-4.69.22-7a.51.51,0,0,1,.53-.47.5.5,0,0,1,.47.53c-.12,2.32-.2,4.67-.22,7A.5.5,0,0,1,.5,152.73Zm305.71-9.17a.5.5,0,0,1-.5-.46c-.16-2.32-.38-4.66-.65-6.95a.5.5,0,0,1,1-.11c.27,2.3.48,4.66.65,7a.5.5,0,0,1-.47.53ZM1.27,138.73H1.21a.5.5,0,0,1-.44-.55c.23-2.32.52-4.67.86-7a.51.51,0,0,1,.57-.42.51.51,0,0,1,.42.57c-.34,2.29-.63,4.62-.86,6.93A.49.49,0,0,1,1.27,138.73Zm303.33-9.07a.5.5,0,0,1-.5-.42c-.37-2.28-.8-4.59-1.27-6.86a.49.49,0,0,1,.38-.59.51.51,0,0,1,.6.39c.47,2.28.91,4.6,1.28,6.9a.5.5,0,0,1-.41.58ZM3.31,124.87h-.1a.5.5,0,0,1-.39-.59c.45-2.29,1-4.6,1.5-6.86a.51.51,0,0,1,.61-.37.5.5,0,0,1,.36.6c-.54,2.25-1,4.55-1.49,6.82A.51.51,0,0,1,3.31,124.87ZM301.73,116a.5.5,0,0,1-.49-.37c-.18-.71-.37-1.43-.56-2.14-.42-1.52-.87-3.06-1.33-4.58a.5.5,0,0,1,1-.29c.46,1.52.91,3.08,1.33,4.61.2.72.38,1.43.57,2.15a.5.5,0,0,1-.36.61ZM6.62,111.26l-.14,0a.5.5,0,0,1-.34-.62c.65-2.24,1.37-4.49,2.12-6.7a.51.51,0,0,1,.64-.31.5.5,0,0,1,.31.63c-.75,2.2-1.46,4.44-2.11,6.66A.51.51,0,0,1,6.62,111.26Zm291-8.68a.52.52,0,0,1-.47-.33c-.78-2.2-1.62-4.39-2.48-6.52a.49.49,0,0,1,.27-.65.5.5,0,0,1,.65.27c.88,2.15,1.72,4.35,2.5,6.56a.49.49,0,0,1-.3.64A.47.47,0,0,1,297.63,102.58ZM11.16,98A.58.58,0,0,1,11,98a.5.5,0,0,1-.28-.65c.86-2.17,1.77-4.35,2.73-6.47a.49.49,0,0,1,.66-.26.51.51,0,0,1,.25.66c-.95,2.12-1.86,4.28-2.71,6.44A.51.51,0,0,1,11.16,98Zm281.19-8.38a.52.52,0,0,1-.46-.29c-1-2.11-2-4.22-3.07-6.27a.5.5,0,0,1,.21-.67.51.51,0,0,1,.68.21c1.07,2.07,2.11,4.19,3.09,6.31a.49.49,0,0,1-.24.66A.54.54,0,0,1,292.35,89.63ZM16.88,85.24a.64.64,0,0,1-.23,0,.52.52,0,0,1-.22-.68c1.05-2.08,2.16-4.16,3.3-6.19a.5.5,0,1,1,.87.49c-1.13,2-2.23,4.09-3.28,6.15A.48.48,0,0,1,16.88,85.24Zm269-8a.51.51,0,0,1-.44-.25c-1.16-2-2.38-4-3.63-5.95a.49.49,0,0,1,.15-.69.5.5,0,0,1,.69.15c1.26,2,2.49,4,3.66,6a.5.5,0,0,1-.18.68A.47.47,0,0,1,285.9,77.21ZM23.74,73a.45.45,0,0,1-.27-.08.5.5,0,0,1-.16-.68c1.23-2,2.53-4,3.85-5.87a.5.5,0,0,1,.7-.13A.49.49,0,0,1,28,67c-1.31,1.91-2.6,3.87-3.82,5.84A.49.49,0,0,1,23.74,73Zm254.6-7.59a.49.49,0,0,1-.41-.21c-1.34-1.88-2.74-3.76-4.16-5.58a.5.5,0,0,1,.79-.62c1.43,1.84,2.84,3.73,4.18,5.62a.51.51,0,0,1-.11.7A.52.52,0,0,1,278.34,65.45ZM31.67,61.52a.49.49,0,0,1-.3-.1.51.51,0,0,1-.1-.7c1.41-1.86,2.88-3.71,4.37-5.5a.49.49,0,0,1,.7-.06.5.5,0,0,1,.07.7c-1.48,1.78-2.94,3.62-4.34,5.46A.51.51,0,0,1,31.67,61.52Zm238.06-7.08a.48.48,0,0,1-.38-.17c-1.51-1.77-3.08-3.51-4.65-5.18a.5.5,0,0,1,.73-.69c1.58,1.69,3.16,3.44,4.68,5.22a.49.49,0,0,1-.38.82ZM40.62,50.77a.5.5,0,0,1-.34-.13.49.49,0,0,1,0-.7c1.57-1.73,3.2-3.43,4.84-5.08a.51.51,0,0,1,.71,0,.5.5,0,0,1,0,.71c-1.63,1.63-3.25,3.33-4.81,5A.5.5,0,0,1,40.62,50.77Zm219.53-6.5a.49.49,0,0,1-.34-.14c-1.66-1.61-3.38-3.2-5.12-4.74a.5.5,0,0,1,.66-.75c1.75,1.55,3.48,3.15,5.15,4.77a.5.5,0,0,1-.35.86ZM50.5,40.89a.54.54,0,0,1-.37-.16.5.5,0,0,1,0-.71c1.71-1.57,3.49-3.12,5.28-4.61a.52.52,0,0,1,.71.07.49.49,0,0,1-.07.7c-1.78,1.48-3.54,3-5.25,4.58A.48.48,0,0,1,50.5,40.89ZM249.68,35a.45.45,0,0,1-.31-.11c-1.8-1.45-3.66-2.88-5.53-4.25a.51.51,0,0,1-.11-.7.5.5,0,0,1,.7-.1c1.88,1.38,3.75,2.82,5.56,4.28a.49.49,0,0,1-.31.88ZM61.25,32a.51.51,0,0,1-.4-.2.5.5,0,0,1,.1-.7c1.85-1.4,3.76-2.78,5.68-4.1a.5.5,0,1,1,.57.82c-1.91,1.31-3.81,2.68-5.65,4.08A.57.57,0,0,1,61.25,32Zm177.16-5.23a.54.54,0,0,1-.28-.08c-1.93-1.29-3.91-2.54-5.89-3.74a.5.5,0,1,1,.51-.85c2,1.2,4,2.46,5.93,3.75a.5.5,0,0,1,.14.7A.49.49,0,0,1,238.41,26.73ZM72.76,24.05a.48.48,0,0,1-.42-.23.49.49,0,0,1,.16-.69c2-1.23,4-2.43,6-3.57a.5.5,0,1,1,.49.88c-2,1.12-4,2.31-6,3.54A.48.48,0,0,1,72.76,24.05Zm153.66-4.54a.53.53,0,0,1-.24-.06c-2-1.1-4.12-2.17-6.21-3.18a.5.5,0,0,1,.44-.9c2.1,1,4.2,2.09,6.25,3.2a.51.51,0,0,1,.2.68A.5.5,0,0,1,226.42,19.51ZM85,17.23a.5.5,0,0,1-.23-.95c2.08-1,4.22-2.05,6.35-3a.49.49,0,0,1,.66.25.5.5,0,0,1-.25.66c-2.12.94-4.25,1.94-6.31,3A.59.59,0,0,1,85,17.23Zm128.84-3.82a.51.51,0,0,1-.2,0c-2.13-.92-4.3-1.79-6.47-2.61a.5.5,0,0,1,.35-.93c2.18.82,4.37,1.7,6.52,2.62a.5.5,0,0,1,.26.66A.49.49,0,0,1,213.82,13.41ZM97.76,11.55a.5.5,0,0,1-.18-1c2.17-.85,4.39-1.66,6.6-2.4a.5.5,0,1,1,.32.94c-2.19.75-4.4,1.55-6.55,2.39A.63.63,0,0,1,97.76,11.55Zm103-3.07-.16,0c-2.2-.72-4.45-1.39-6.68-2a.5.5,0,1,1,.27-1c2.24.62,4.5,1.3,6.72,2a.5.5,0,0,1-.15,1ZM111,7.06a.49.49,0,0,1-.48-.36.5.5,0,0,1,.34-.62l2.31-.64c1.49-.41,3-.79,4.48-1.15a.5.5,0,0,1,.23,1c-1.48.36-3,.74-4.45,1.14-.77.21-1.53.42-2.3.65Zm76.2-2.3h-.11c-2.27-.51-4.57-1-6.85-1.39a.5.5,0,1,1,.18-1c2.29.41,4.61.88,6.89,1.39a.49.49,0,0,1,.37.6A.5.5,0,0,1,187.22,4.76Zm-62.6-1a.51.51,0,0,1-.49-.41.5.5,0,0,1,.4-.58c2.28-.45,4.61-.84,6.92-1.18a.5.5,0,0,1,.15,1c-2.3.34-4.61.73-6.88,1.17ZM173.43,2.3h-.07c-2.3-.3-4.64-.55-6.94-.75A.5.5,0,0,1,166,1a.48.48,0,0,1,.54-.45c2.32.19,4.68.45,7,.75a.5.5,0,0,1,.43.56A.5.5,0,0,1,173.43,2.3Zm-35-.54a.52.52,0,0,1-.5-.45.51.51,0,0,1,.45-.55c2.32-.23,4.67-.41,7-.54a.5.5,0,0,1,.06,1c-2.32.12-4.66.3-7,.53Zm21-.65h0C157.51,1,155.55,1,153.63,1h-1.18a.49.49,0,0,1-.5-.49.51.51,0,0,1,.49-.51h1.19c1.94,0,3.9,0,5.85.11a.5.5,0,0,1,0,1Z" opacity="0.8" fill="url(#a)" style="isolation:isolate"/></svg>