<svg xmlns="http://www.w3.org/2000/svg" xmlns:xlink="http://www.w3.org/1999/xlink" width="100%" height="100%" viewBox="0 0 514 514"><defs><linearGradient id="a" x1="254.37" y1="517.13" x2="277.25" y2="827.99" gradientTransform="matrix(1, 0, 0, -1, 0, 810)" gradientUnits="userSpaceOnUse"><stop offset="0" stop-color="#ec5b4b"/><stop offset="1" stop-color="#ec5b4b" stop-opacity="0"/></linearGradient></defs><path d="M258.08,514a.5.5,0,0,1,0-1c2.33,0,4.68,0,7-.12a.5.5,0,0,1,0,1c-2.32.07-4.68.11-7,.12Zm-7-.07h0c-2.35,0-4.7-.14-7-.25a.5.5,0,0,1-.47-.53.46.46,0,0,1,.52-.47c2.3.11,4.64.2,7,.25a.51.51,0,0,1,.49.51A.5.5,0,0,1,251.08,513.93Zm21-.36a.5.5,0,0,1-.49-.48.49.49,0,0,1,.47-.52c2.33-.14,4.67-.31,7-.5a.51.51,0,0,1,.54.45.49.49,0,0,1-.45.54c-2.3.2-4.66.37-7,.5Zm-35-.33h0c-2.33-.18-4.68-.39-7-.63a.5.5,0,0,1-.44-.55.49.49,0,0,1,.54-.45c2.29.24,4.63.45,7,.63a.5.5,0,0,1,0,1Zm48.91-.86a.5.5,0,0,1-.06-1c2.3-.26,4.63-.55,6.93-.88a.52.52,0,0,1,.57.43.51.51,0,0,1-.43.57c-2.31.32-4.65.62-7,.88Zm-62.83-.59h-.06c-2.33-.31-4.66-.65-6.94-1a.52.52,0,0,1-.42-.58.51.51,0,0,1,.58-.41c2.27.36,4.59.7,6.91,1a.51.51,0,0,1,.43.57A.5.5,0,0,1,223.18,511.79Zm76.69-1.36a.5.5,0,0,1-.09-1c2.28-.38,4.6-.8,6.88-1.25a.48.48,0,0,1,.58.39.49.49,0,0,1-.39.59c-2.29.45-4.61.87-6.9,1.26Zm-90.51-.85h-.09c-2.3-.44-4.62-.9-6.87-1.39a.52.52,0,0,1-.39-.6.51.51,0,0,1,.6-.38c2.25.49,4.55,1,6.85,1.38a.49.49,0,0,1,.39.59A.49.49,0,0,1,209.36,509.58Zm104.24-1.84a.5.5,0,0,1-.11-1c2.26-.51,4.55-1.06,6.79-1.63a.5.5,0,1,1,.25,1c-2.25.57-4.55,1.12-6.82,1.63Zm-117.92-1.11-.11,0c-2.27-.55-4.55-1.15-6.79-1.76a.5.5,0,0,1,.26-1c2.24.62,4.51,1.21,6.76,1.76a.5.5,0,0,1,.37.6A.51.51,0,0,1,195.68,506.63Zm131.48-2.34a.51.51,0,0,1-.48-.37.5.5,0,0,1,.35-.61c2.23-.64,4.48-1.31,6.69-2a.5.5,0,0,1,.63.32.51.51,0,0,1-.33.63c-2.22.7-4.48,1.37-6.72,2Zm-145-1.37-.15,0c-2.24-.68-4.49-1.41-6.7-2.15a.5.5,0,1,1,.32-.94c2.2.73,4.44,1.45,6.67,2.13a.5.5,0,0,1,.34.62A.51.51,0,0,1,182.19,502.92Zm158.33-2.82a.51.51,0,0,1-.48-.34.51.51,0,0,1,.31-.64c2.18-.74,4.39-1.54,6.58-2.36a.5.5,0,0,1,.64.29.5.5,0,0,1-.29.65c-2.2.82-4.42,1.62-6.6,2.37A.45.45,0,0,1,340.52,500.1Zm-171.65-1.64-.17,0c-2.2-.81-4.42-1.65-6.57-2.51a.5.5,0,1,1,.37-.93c2.15.86,4.35,1.7,6.54,2.5a.5.5,0,0,1-.17,1Zm184.75-3.28a.5.5,0,0,1-.46-.31.49.49,0,0,1,.27-.65c2.14-.87,4.3-1.79,6.41-2.72a.51.51,0,0,1,.66.26.5.5,0,0,1-.25.66c-2.13.93-4.3,1.85-6.44,2.72A.43.43,0,0,1,353.62,495.18Zm-197.79-1.9a.49.49,0,0,1-.2,0c-2.13-.91-4.3-1.88-6.42-2.86a.49.49,0,0,1-.24-.66.5.5,0,0,1,.66-.25c2.12,1,4.27,1.94,6.4,2.86a.49.49,0,0,1,.26.65A.51.51,0,0,1,155.83,493.28Zm210.56-3.71a.51.51,0,0,1-.45-.29.49.49,0,0,1,.24-.66c2.08-1,4.18-2,6.26-3.06a.5.5,0,0,1,.67.22.49.49,0,0,1-.22.67c-2.08,1.05-4.2,2.09-6.28,3.07A.54.54,0,0,1,366.39,489.57ZM143.1,487.39a.49.49,0,0,1-.23-.06c-2.07-1-4.18-2.11-6.25-3.21a.49.49,0,0,1-.2-.67.49.49,0,0,1,.67-.21c2.07,1.1,4.16,2.17,6.23,3.2a.49.49,0,0,1,.22.67A.5.5,0,0,1,143.1,487.39Zm235.75-4.12a.5.5,0,0,1-.24-.94c2-1.09,4.07-2.24,6.09-3.4a.5.5,0,1,1,.5.86c-2,1.17-4.09,2.32-6.11,3.42A.53.53,0,0,1,378.85,483.27Zm-248.14-2.46a.42.42,0,0,1-.24-.07c-2-1.15-4.08-2.34-6.07-3.54a.51.51,0,0,1-.17-.69.51.51,0,0,1,.69-.17c2,1.2,4,2.38,6,3.53a.51.51,0,0,1,.19.68A.5.5,0,0,1,130.71,480.81ZM391,476.29a.5.5,0,0,1-.26-.92c2-1.22,4-2.48,5.89-3.73a.5.5,0,0,1,.55.83c-1.94,1.26-3.93,2.52-5.92,3.75A.48.48,0,0,1,391,476.29Zm-272.24-2.72a.56.56,0,0,1-.27-.08c-2-1.25-3.92-2.55-5.86-3.87a.52.52,0,0,1-.13-.7.51.51,0,0,1,.7-.13c1.93,1.31,3.89,2.61,5.83,3.86a.5.5,0,0,1,.15.69A.48.48,0,0,1,118.71,473.57Zm283.94-4.91a.5.5,0,0,1-.28-.91c1.9-1.31,3.81-2.67,5.68-4a.5.5,0,1,1,.6.8c-1.88,1.38-3.8,2.74-5.71,4.06A.52.52,0,0,1,402.65,468.66Zm-295.52-3a.5.5,0,0,1-.29-.09c-1.88-1.35-3.77-2.76-5.64-4.18a.5.5,0,0,1,.61-.8c1.86,1.42,3.74,2.82,5.61,4.17a.5.5,0,0,1-.29.9Zm306.81-5.28a.5.5,0,0,1-.31-.89c1.83-1.42,3.66-2.88,5.46-4.35a.5.5,0,1,1,.63.77c-1.8,1.48-3.64,2.95-5.48,4.37A.49.49,0,0,1,413.94,460.4ZM96,457.19a.47.47,0,0,1-.32-.12c-1.8-1.45-3.61-2.95-5.4-4.48a.5.5,0,0,1,.65-.76c1.78,1.52,3.59,3,5.38,4.47a.49.49,0,0,1,.07.7A.49.49,0,0,1,96,457.19Zm328.75-5.65a.51.51,0,0,1-.37-.17.49.49,0,0,1,.05-.7c1.74-1.51,3.49-3.07,5.21-4.64a.5.5,0,1,1,.68.73c-1.73,1.58-3.49,3.15-5.24,4.66A.5.5,0,0,1,424.75,451.54ZM85.34,448.1A.46.46,0,0,1,85,448c-1.74-1.57-3.47-3.17-5.15-4.77a.5.5,0,0,1,.69-.72c1.67,1.59,3.4,3.19,5.13,4.75a.5.5,0,0,1,0,.7A.52.52,0,0,1,85.34,448.1Zm349.74-6a.52.52,0,0,1-.36-.16.49.49,0,0,1,0-.7c1.65-1.6,3.32-3.25,4.95-4.92a.5.5,0,0,1,.72.7c-1.64,1.67-3.32,3.33-5,4.94A.52.52,0,0,1,435.08,442.11ZM75.21,438.45a.51.51,0,0,1-.36-.15c-1.63-1.64-3.28-3.33-4.88-5a.5.5,0,1,1,.73-.69c1.6,1.69,3.23,3.38,4.86,5a.5.5,0,0,1-.35.85Zm369.68-6.33a.47.47,0,0,1-.34-.13.5.5,0,0,1,0-.71c1.58-1.7,3.16-3.44,4.69-5.18a.49.49,0,0,1,.7-.05.51.51,0,0,1,0,.71c-1.54,1.75-3.12,3.5-4.71,5.2A.48.48,0,0,1,444.89,432.12ZM65.61,428.27a.52.52,0,0,1-.38-.17c-1.55-1.74-3.09-3.52-4.59-5.29a.5.5,0,0,1,.76-.64c1.49,1.76,3,3.54,4.58,5.27a.49.49,0,0,1,0,.7A.48.48,0,0,1,65.61,428.27Zm388.53-6.66a.52.52,0,0,1-.32-.11.51.51,0,0,1-.07-.71c1.48-1.77,3-3.6,4.4-5.43a.52.52,0,0,1,.71-.08.5.5,0,0,1,.08.7c-1.45,1.84-2.93,3.67-4.42,5.45A.49.49,0,0,1,454.14,421.61Zm-397.56-4a.51.51,0,0,1-.39-.19c-1.45-1.82-2.9-3.68-4.3-5.53a.5.5,0,0,1,.09-.7.51.51,0,0,1,.71.1c1.39,1.84,2.83,3.7,4.28,5.51a.5.5,0,0,1-.08.7A.51.51,0,0,1,56.58,417.59Zm406.23-7a.53.53,0,0,1-.3-.09.5.5,0,0,1-.1-.7c1.38-1.86,2.76-3.77,4.1-5.67a.5.5,0,0,1,.69-.12.51.51,0,0,1,.13.7c-1.35,1.9-2.73,3.82-4.12,5.68A.51.51,0,0,1,462.81,410.61ZM48.15,406.44a.49.49,0,0,1-.41-.21c-1.35-1.89-2.7-3.83-4-5.75a.5.5,0,1,1,.82-.56c1.3,1.91,2.64,3.84,4,5.73a.5.5,0,0,1-.11.69A.46.46,0,0,1,48.15,406.44Zm422.72-7.28a.49.49,0,0,1-.28-.09.5.5,0,0,1-.14-.69c1.28-1.92,2.55-3.9,3.79-5.88a.5.5,0,0,1,.69-.16.51.51,0,0,1,.16.69c-1.25,2-2.52,4-3.8,5.9A.51.51,0,0,1,470.87,399.16ZM40.33,394.85a.51.51,0,0,1-.42-.23c-1.24-2-2.48-4-3.67-6a.51.51,0,0,1,.17-.69.51.51,0,0,1,.69.18c1.19,2,2.42,4,3.66,5.93a.51.51,0,0,1-.43.77Zm438-7.58a.48.48,0,0,1-.26-.07.5.5,0,0,1-.17-.68c1.17-2,2.34-4,3.46-6.08a.51.51,0,0,1,.68-.2.5.5,0,0,1,.19.68c-1.12,2.05-2.29,4.1-3.47,6.11A.52.52,0,0,1,478.3,387.27ZM33.17,382.86a.49.49,0,0,1-.44-.26c-1.13-2-2.25-4.08-3.34-6.14a.5.5,0,0,1,.89-.47c1.08,2.06,2.2,4.12,3.32,6.13a.5.5,0,0,1-.19.68A.5.5,0,0,1,33.17,382.86ZM485.07,375a.46.46,0,0,1-.23-.06.5.5,0,0,1-.22-.67c1.07-2.07,2.12-4.17,3.13-6.27a.5.5,0,0,1,.67-.23.51.51,0,0,1,.23.67c-1,2.1-2.07,4.21-3.14,6.28A.49.49,0,0,1,485.07,375Zm-458.4-4.5a.5.5,0,0,1-.45-.28c-1-2.07-2-4.2-3-6.31a.52.52,0,0,1,.25-.67.5.5,0,0,1,.66.25c1,2.11,2,4.22,3,6.29a.5.5,0,0,1-.23.67A.44.44,0,0,1,26.67,370.5Zm464.49-8.14a.52.52,0,0,1-.21,0,.51.51,0,0,1-.25-.67c.95-2.11,1.88-4.28,2.78-6.42a.5.5,0,1,1,.92.38c-.9,2.16-1.83,4.33-2.79,6.45A.49.49,0,0,1,491.16,362.36Zm-470.3-4.54a.5.5,0,0,1-.46-.31c-.91-2.13-1.8-4.31-2.65-6.46a.51.51,0,0,1,.28-.65.5.5,0,0,1,.65.28c.85,2.15,1.73,4.31,2.64,6.44a.5.5,0,0,1-.27.66A.65.65,0,0,1,20.86,357.82Zm475.68-8.42a.51.51,0,0,1-.17,0,.5.5,0,0,1-.29-.65c.83-2.16,1.64-4.38,2.42-6.57a.51.51,0,0,1,.64-.31.5.5,0,0,1,.3.64c-.78,2.21-1.59,4.43-2.43,6.6A.49.49,0,0,1,496.54,349.4Zm-480.8-4.58a.52.52,0,0,1-.47-.33c-.79-2.2-1.56-4.43-2.29-6.63a.5.5,0,1,1,.95-.31c.73,2.19,1.49,4.41,2.28,6.6a.5.5,0,0,1-.29.64Zm485.47-8.66-.15,0a.49.49,0,0,1-.32-.62c.71-2.21,1.4-4.46,2.05-6.68a.49.49,0,0,1,.62-.34.51.51,0,0,1,.34.62c-.66,2.23-1.35,4.48-2.06,6.7A.51.51,0,0,1,501.21,336.16ZM11.34,331.53a.49.49,0,0,1-.47-.36c-.67-2.22-1.32-4.49-1.93-6.74a.5.5,0,1,1,1-.26c.61,2.24,1.26,4.5,1.92,6.72a.5.5,0,0,1-.33.62Zm493.79-8.81H505a.5.5,0,0,1-.36-.61c.59-2.24,1.15-4.52,1.68-6.78a.5.5,0,1,1,1,.22c-.53,2.28-1.09,4.57-1.68,6.81A.51.51,0,0,1,505.13,322.72ZM7.68,318a.49.49,0,0,1-.48-.38c-.55-2.27-1.08-4.57-1.56-6.84a.5.5,0,0,1,1-.21c.48,2.27,1,4.56,1.55,6.81a.51.51,0,0,1-.37.61Zm500.63-8.93h-.1a.49.49,0,0,1-.39-.59c.46-2.26.9-4.57,1.3-6.86a.5.5,0,0,1,.58-.4.5.5,0,0,1,.41.58c-.41,2.29-.85,4.61-1.31,6.88A.5.5,0,0,1,508.31,309.09ZM4.77,304.33a.5.5,0,0,1-.5-.4c-.42-2.3-.82-4.62-1.17-6.92a.49.49,0,0,1,.41-.57.5.5,0,0,1,.57.42c.36,2.28.76,4.6,1.18,6.88a.5.5,0,0,1-.4.59Zm506-9h-.07a.5.5,0,0,1-.42-.56c.34-2.29.65-4.62.93-6.93a.5.5,0,0,1,.55-.43.5.5,0,0,1,.44.55c-.28,2.32-.59,4.66-.93,6.95A.51.51,0,0,1,510.73,295.31ZM2.6,290.51a.5.5,0,0,1-.49-.44c-.3-2.29-.57-4.64-.8-7a.5.5,0,0,1,.45-.55.48.48,0,0,1,.54.45c.24,2.31.51,4.65.8,6.93a.49.49,0,0,1-.43.56Zm509.8-9.1h0a.5.5,0,0,1-.45-.54c.22-2.31.4-4.66.55-7a.5.5,0,0,1,.53-.47.5.5,0,0,1,.47.53c-.15,2.32-.34,4.67-.55,7A.5.5,0,0,1,512.4,281.41ZM1.2,276.58a.5.5,0,0,1-.5-.46c-.17-2.32-.31-4.67-.42-7a.5.5,0,0,1,.48-.52.49.49,0,0,1,.52.47c.11,2.32.25,4.67.42,7a.5.5,0,0,1-.46.53Zm512.11-9.13h0a.5.5,0,0,1-.48-.52c.09-2.31.15-4.66.17-7a.51.51,0,0,1,.5-.5h0a.5.5,0,0,1,.49.51c0,2.33-.08,4.69-.17,7A.5.5,0,0,1,513.31,267.45ZM.55,262.6a.49.49,0,0,1-.5-.49c0-1.7,0-3.4,0-5.11,0-.63,0-1.27,0-1.9a.5.5,0,0,1,.5-.5h0a.5.5,0,0,1,.5.51c0,.63,0,1.26,0,1.89,0,1.7,0,3.4.05,5.09a.5.5,0,0,1-.49.51Zm512.92-9.15a.49.49,0,0,1-.5-.49c0-2.32-.1-4.66-.2-7a.5.5,0,0,1,.48-.52.48.48,0,0,1,.52.48c.1,2.31.16,4.67.2,7a.5.5,0,0,1-.49.5ZM.65,248.61h0a.5.5,0,0,1-.48-.52c.08-2.33.19-4.68.33-7a.51.51,0,0,1,.53-.47.49.49,0,0,1,.47.53c-.14,2.31-.25,4.66-.33,7A.51.51,0,0,1,.65,248.61Zm512.23-9.13a.5.5,0,0,1-.5-.46c-.16-2.31-.36-4.65-.58-7a.5.5,0,0,1,.45-.55.52.52,0,0,1,.55.45c.22,2.32.41,4.67.58,7a.51.51,0,0,1-.47.53ZM1.51,234.64H1.46a.5.5,0,0,1-.45-.55c.2-2.31.44-4.66.71-7a.5.5,0,0,1,1,.11c-.26,2.31-.5,4.64-.71,7A.5.5,0,0,1,1.51,234.64Zm510-9.09a.51.51,0,0,1-.5-.43c-.28-2.31-.61-4.64-.95-6.92a.49.49,0,0,1,.42-.57.5.5,0,0,1,.57.42c.35,2.29.67,4.63,1,6.94a.5.5,0,0,1-.44.56ZM3.12,220.74H3a.5.5,0,0,1-.42-.56c.33-2.3.7-4.63,1.09-6.93a.5.5,0,0,1,1,.17c-.4,2.29-.76,4.61-1.09,6.9A.5.5,0,0,1,3.12,220.74Zm506.31-9a.49.49,0,0,1-.49-.41c-.42-2.29-.87-4.6-1.34-6.86a.5.5,0,1,1,1-.2c.48,2.27.93,4.58,1.34,6.88a.5.5,0,0,1-.4.58ZM5.48,206.94h-.1a.49.49,0,0,1-.39-.58c.46-2.29,1-4.59,1.47-6.86a.5.5,0,0,1,.6-.38.49.49,0,0,1,.37.6c-.51,2.26-1,4.56-1.46,6.83A.5.5,0,0,1,5.48,206.94ZM506.57,198a.51.51,0,0,1-.49-.39c-.53-2.25-1.11-4.52-1.7-6.77a.48.48,0,0,1,.35-.61.5.5,0,0,1,.61.35c.6,2.26,1.18,4.54,1.71,6.8a.49.49,0,0,1-.37.6ZM8.6,193.3l-.12,0a.49.49,0,0,1-.36-.6c.58-2.26,1.2-4.53,1.84-6.77a.5.5,0,0,1,1,.28c-.64,2.22-1.26,4.49-1.84,6.73A.49.49,0,0,1,8.6,193.3ZM503,184.5a.52.52,0,0,1-.48-.36c-.66-2.24-1.36-4.49-2.07-6.67a.49.49,0,0,1,.32-.63.5.5,0,0,1,.63.32c.71,2.19,1.41,4.44,2.08,6.69a.49.49,0,0,1-.34.62A.32.32,0,0,1,503,184.5Zm-490.5-4.65a.4.4,0,0,1-.15,0,.49.49,0,0,1-.32-.62c.7-2.23,1.45-4.48,2.22-6.68a.5.5,0,0,1,.63-.31.51.51,0,0,1,.31.64c-.76,2.19-1.51,4.43-2.21,6.65A.5.5,0,0,1,12.46,179.85Zm486.16-8.66a.5.5,0,0,1-.47-.33c-.78-2.18-1.6-4.38-2.44-6.55a.49.49,0,0,1,.28-.64.51.51,0,0,1,.65.28c.84,2.18,1.67,4.39,2.45,6.57a.5.5,0,0,1-.3.64Zm-481.54-4.6a.39.39,0,0,1-.18,0,.49.49,0,0,1-.29-.64c.83-2.18,1.7-4.38,2.58-6.54a.5.5,0,0,1,.93.38c-.89,2.15-1.75,4.34-2.57,6.51A.52.52,0,0,1,17.08,166.59Zm476.48-8.42a.5.5,0,0,1-.46-.31c-.9-2.12-1.83-4.27-2.79-6.38a.5.5,0,0,1,.91-.41c1,2.11,1.9,4.27,2.8,6.4a.5.5,0,0,1-.27.66A.43.43,0,0,1,493.56,158.17ZM22.41,153.6a.51.51,0,0,1-.2,0,.49.49,0,0,1-.25-.66c.94-2.13,1.93-4.28,2.93-6.38a.5.5,0,0,1,.91.43c-1,2.09-2,4.23-2.93,6.36A.51.51,0,0,1,22.41,153.6Zm465.39-8.14a.52.52,0,0,1-.45-.28c-1-2.1-2.07-4.19-3.13-6.23a.5.5,0,0,1,.21-.67.51.51,0,0,1,.68.21c1.06,2,2.12,4.15,3.14,6.25a.5.5,0,0,1-.23.67A.54.54,0,0,1,487.8,145.46ZM28.45,140.94a.48.48,0,0,1-.23-.05.5.5,0,0,1-.21-.67c1-2.08,2.16-4.17,3.28-6.22a.5.5,0,0,1,.68-.2.51.51,0,0,1,.2.68c-1.12,2-2.22,4.13-3.27,6.19A.51.51,0,0,1,28.45,140.94Zm452.91-7.86a.51.51,0,0,1-.44-.26c-1.14-2-2.31-4.08-3.47-6a.5.5,0,0,1,.17-.68.51.51,0,0,1,.69.17c1.17,2,2.34,4,3.48,6.07a.49.49,0,0,1-.19.68A.44.44,0,0,1,481.36,133.08ZM35.17,128.64a.45.45,0,0,1-.25-.07.49.49,0,0,1-.18-.68c1.17-2,2.39-4,3.61-6a.51.51,0,0,1,.69-.17.49.49,0,0,1,.16.69c-1.22,2-2.43,4-3.6,6A.5.5,0,0,1,35.17,128.64Zm439.07-7.58a.49.49,0,0,1-.42-.24c-1.23-1.95-2.51-3.92-3.8-5.85a.5.5,0,1,1,.83-.55c1.3,1.93,2.58,3.91,3.81,5.87a.51.51,0,0,1-.42.77ZM42.55,116.72a.49.49,0,0,1-.42-.77c1.28-2,2.61-3.9,3.94-5.81a.5.5,0,0,1,.7-.13.51.51,0,0,1,.12.7c-1.33,1.9-2.65,3.85-3.92,5.79A.52.52,0,0,1,42.55,116.72Zm423.92-7.28a.5.5,0,0,1-.4-.21c-1.34-1.9-2.73-3.79-4.11-5.64a.5.5,0,0,1,.1-.7.49.49,0,0,1,.7.1c1.39,1.85,2.78,3.76,4.12,5.66a.49.49,0,0,1-.12.69A.43.43,0,0,1,466.47,109.44ZM50.56,105.23a.52.52,0,0,1-.29-.09.51.51,0,0,1-.11-.7c1.39-1.88,2.81-3.76,4.25-5.59a.5.5,0,0,1,.7-.09.51.51,0,0,1,.09.71c-1.43,1.82-2.86,3.7-4.23,5.56A.51.51,0,0,1,50.56,105.23Zm407.53-7a.48.48,0,0,1-.39-.19c-1.45-1.82-2.93-3.64-4.41-5.41a.5.5,0,1,1,.76-.64c1.49,1.77,3,3.6,4.43,5.43a.49.49,0,0,1-.08.7A.51.51,0,0,1,458.09,98.25Zm-398.9-4a.51.51,0,0,1-.32-.12.49.49,0,0,1-.06-.7c1.48-1.8,3-3.59,4.54-5.35a.5.5,0,0,1,.7,0,.49.49,0,0,1,0,.7c-1.52,1.75-3,3.54-4.52,5.33A.51.51,0,0,1,59.19,94.2Zm389.92-6.67a.52.52,0,0,1-.38-.17c-1.54-1.74-3.12-3.48-4.7-5.16a.5.5,0,0,1,0-.71.48.48,0,0,1,.7,0c1.58,1.69,3.17,3.43,4.72,5.18a.51.51,0,0,1,0,.71A.54.54,0,0,1,449.11,87.53ZM68.4,83.65a.5.5,0,0,1-.37-.84c1.57-1.7,3.2-3.41,4.82-5.08a.5.5,0,0,1,.72.69c-1.62,1.67-3.24,3.37-4.8,5.07A.5.5,0,0,1,68.4,83.65Zm371.15-6.34a.51.51,0,0,1-.36-.15c-1.62-1.64-3.29-3.29-5-4.9a.5.5,0,0,1,0-.71.49.49,0,0,1,.7,0c1.69,1.61,3.37,3.27,5,4.92a.5.5,0,0,1,0,.71A.52.52,0,0,1,439.55,77.31ZM78.16,73.63a.51.51,0,0,1-.36-.15.51.51,0,0,1,0-.71c1.67-1.62,3.38-3.24,5.09-4.82a.5.5,0,0,1,.71,0,.49.49,0,0,1,0,.7c-1.71,1.58-3.41,3.19-5.07,4.81A.52.52,0,0,1,78.16,73.63Zm351.29-6a.46.46,0,0,1-.33-.13c-1.72-1.55-3.48-3.11-5.24-4.63a.5.5,0,1,1,.65-.75c1.77,1.52,3.54,3.08,5.26,4.64a.5.5,0,0,1,0,.71A.49.49,0,0,1,429.45,67.62Zm-341-3.47a.52.52,0,0,1-.38-.17.51.51,0,0,1,.05-.71c1.75-1.53,3.55-3.05,5.34-4.53a.51.51,0,0,1,.71.06.52.52,0,0,1-.07.71c-1.79,1.47-3.58,3-5.32,4.51A.48.48,0,0,1,88.45,64.15Zm330.39-5.66a.56.56,0,0,1-.32-.11c-1.79-1.46-3.64-2.92-5.48-4.34a.51.51,0,0,1-.09-.7.5.5,0,0,1,.7-.09c1.85,1.42,3.7,2.88,5.51,4.35a.5.5,0,0,1-.32.89ZM99.23,55.24a.5.5,0,0,1-.3-.89c1.83-1.43,3.71-2.86,5.57-4.24a.51.51,0,0,1,.7.11.5.5,0,0,1-.1.7c-1.86,1.37-3.73,2.79-5.56,4.22A.5.5,0,0,1,99.23,55.24ZM407.74,50a.53.53,0,0,1-.29-.1c-1.87-1.36-3.79-2.72-5.71-4a.5.5,0,0,1,.56-.82c1.93,1.32,3.86,2.68,5.74,4a.51.51,0,0,1,.11.7A.52.52,0,0,1,407.74,50Zm-297.26-3a.52.52,0,0,1-.41-.21.51.51,0,0,1,.12-.7c1.91-1.33,3.86-2.65,5.8-3.93a.5.5,0,0,1,.55.84c-1.94,1.27-3.88,2.59-5.77,3.91A.52.52,0,0,1,110.48,46.94ZM396.19,42a.53.53,0,0,1-.27-.08C394,40.68,392,39.43,390,38.21a.49.49,0,0,1-.17-.68.5.5,0,0,1,.69-.17c2,1.22,4,2.47,5.94,3.74a.5.5,0,0,1-.27.92Zm-274-2.76a.5.5,0,0,1-.27-.92c2-1.23,4-2.44,6-3.61a.52.52,0,0,1,.69.19.5.5,0,0,1-.18.68c-2,1.16-4,2.37-6,3.59A.48.48,0,0,1,122.16,39.26Zm262.06-4.54a.57.57,0,0,1-.25-.06c-2-1.16-4.08-2.3-6.12-3.39a.51.51,0,0,1-.2-.68.5.5,0,0,1,.68-.21c2,1.1,4.11,2.25,6.14,3.41a.51.51,0,0,1,.19.68A.52.52,0,0,1,384.22,34.72Zm-250-2.48a.51.51,0,0,1-.44-.26.5.5,0,0,1,.2-.68c2-1.12,4.12-2.22,6.18-3.27a.5.5,0,0,1,.68.22.51.51,0,0,1-.22.67c-2,1-4.13,2.14-6.16,3.25A.44.44,0,0,1,134.23,32.24ZM371.87,28.1a.46.46,0,0,1-.23-.06c-2.06-1-4.18-2.06-6.3-3.05a.5.5,0,0,1-.24-.67.51.51,0,0,1,.67-.24c2.13,1,4.25,2,6.32,3.07a.49.49,0,0,1,.22.67A.5.5,0,0,1,371.87,28.1ZM146.66,25.88a.48.48,0,0,1-.45-.28.5.5,0,0,1,.23-.67c2.1-1,4.24-2,6.35-2.93a.5.5,0,0,1,.41.92c-2.11.93-4.24,1.91-6.33,2.91A.41.41,0,0,1,146.66,25.88Zm212.5-3.73a.48.48,0,0,1-.2,0c-2.13-.93-4.3-1.84-6.46-2.7a.5.5,0,0,1,.37-.93c2.17.87,4.35,1.78,6.49,2.71a.51.51,0,0,1,.26.66A.5.5,0,0,1,359.16,22.15ZM159.41,20.22a.5.5,0,0,1-.46-.31.49.49,0,0,1,.27-.65c2.15-.89,4.34-1.76,6.52-2.58a.49.49,0,0,1,.64.29.5.5,0,0,1-.29.64c-2.16.82-4.35,1.69-6.49,2.57A.43.43,0,0,1,159.41,20.22Zm186.73-3.31a.47.47,0,0,1-.17,0c-2.18-.81-4.4-1.6-6.61-2.34a.51.51,0,0,1-.31-.64.5.5,0,0,1,.63-.31c2.22.75,4.45,1.54,6.63,2.35a.52.52,0,0,1,.3.65A.51.51,0,0,1,346.14,16.91ZM172.49,15.25a.5.5,0,0,1-.16-1c2.2-.77,4.44-1.52,6.65-2.22a.5.5,0,1,1,.3.95c-2.2.7-4.43,1.44-6.62,2.21A.51.51,0,0,1,172.49,15.25ZM332.84,12.4l-.15,0c-2.21-.69-4.46-1.35-6.7-2a.5.5,0,0,1,.27-1c2.25.63,4.51,1.29,6.73,2a.5.5,0,0,1-.15,1Zm-147-1.4a.49.49,0,0,1-.48-.36.5.5,0,0,1,.34-.62c2.23-.64,4.51-1.26,6.76-1.85a.51.51,0,0,1,.61.36.5.5,0,0,1-.36.61c-2.24.58-4.51,1.2-6.73,1.84A.36.36,0,0,1,185.83,11ZM319.36,8.63h-.12c-2.25-.56-4.53-1.1-6.8-1.6a.5.5,0,0,1-.38-.6.51.51,0,0,1,.6-.38c2.27.5,4.57,1,6.82,1.61a.5.5,0,0,1-.12,1Zm-120-1.13a.5.5,0,0,1-.12-1c2.28-.52,4.58-1,6.86-1.47a.5.5,0,1,1,.2,1c-2.27.45-4.57,1-6.83,1.47ZM305.7,5.62h-.1c-2.28-.44-4.59-.85-6.87-1.23a.5.5,0,0,1-.42-.57.51.51,0,0,1,.58-.41c2.29.37,4.61.79,6.9,1.23a.5.5,0,0,1,.4.58A.51.51,0,0,1,305.7,5.62Zm-92.6-.88a.5.5,0,0,1-.09-1c2.3-.4,4.63-.77,6.93-1.1a.5.5,0,0,1,.56.43.5.5,0,0,1-.42.56c-2.29.33-4.61.7-6.9,1.1Zm78.79-1.39h-.07c-2.29-.31-4.63-.6-6.94-.85a.5.5,0,0,1-.44-.55.5.5,0,0,1,.55-.44c2.32.25,4.66.53,7,.85a.5.5,0,0,1-.06,1ZM227,2.74a.5.5,0,0,1-.06-1c2.31-.27,4.65-.52,7-.72a.5.5,0,0,1,.55.45A.5.5,0,0,1,234,2c-2.31.21-4.65.45-6.95.72Zm51-.9h0c-2.31-.18-4.65-.34-7-.47a.5.5,0,1,1,.06-1c2.32.12,4.67.28,7,.47a.5.5,0,0,1,0,1ZM240.89,1.5a.51.51,0,0,1-.5-.47.5.5,0,0,1,.47-.53c2.31-.15,4.67-.26,7-.34a.51.51,0,0,1,.52.48.5.5,0,0,1-.48.52c-2.33.08-4.67.19-7,.34ZM264,1.09h0C261.62,1,259.22,1,256.84,1h-2a.46.46,0,0,1-.5-.5.5.5,0,0,1,.49-.5H257c2.33,0,4.69,0,7,.09a.51.51,0,0,1,.49.52A.5.5,0,0,1,264,1.09Z" opacity="0.8" fill="url(#a)" style="isolation:isolate"/><circle cx="387.64" cy="477.64" r="4" transform="translate(-221.56 562.97) rotate(-58.91)" fill="#ec5b4b"/><circle cx="12.64" cy="180.64" r="4" transform="translate(-148.58 98.19) rotate(-58.91)" fill="#ec5b4b"/></svg>