<svg xmlns="http://www.w3.org/2000/svg" xmlns:xlink="http://www.w3.org/1999/xlink" width="100%" height="100%" viewBox="0 0 127.92 103.14"><defs><linearGradient id="a" x1="65.08" y1="63.08" x2="7.1" y2="0.39" gradientTransform="matrix(1, 0, 0, -1, 0, 107.47)" gradientUnits="userSpaceOnUse"><stop offset="0" stop-color="#ec5b4b"/><stop offset="1" stop-color="#ec5b4b" stop-opacity="0"/></linearGradient></defs><path d="M1.7,101.75l-.85-.53Q1.92,99.51,3,97.83l.84.54C3.11,99.48,2.41,100.61,1.7,101.75ZM6,95l-.84-.55c.74-1.12,1.48-2.23,2.23-3.33l.83.56C7.46,92.79,6.73,93.89,6,95Zm4.48-6.61-.82-.57c.77-1.1,1.54-2.19,2.32-3.27l.81.59C12,86.22,11.24,87.31,10.47,88.4Zm4.67-6.47-.8-.6c.8-1.08,1.61-2.14,2.42-3.19l.79.61C16.75,79.8,15.94,80.86,15.14,81.93ZM20,75.6,19.22,75q1.26-1.59,2.52-3.12l.77.63C21.68,73.51,20.84,74.55,20,75.6Zm5.06-6.18-.77-.64c.87-1,1.74-2,2.62-3l.75.66C26.8,67.39,25.93,68.4,25.07,69.42Zm5.25-6-.74-.67c.9-1,1.8-2,2.71-3l.73.68Q31.67,61.93,30.32,63.41Zm5.44-5.83-.72-.7c.94-1,1.87-1.92,2.81-2.86l.71.71C37.63,55.66,36.7,56.61,35.76,57.58Zm5.64-5.66-.7-.72,2.91-2.76.68.73C43.33,50.07,42.36,51,41.4,51.92Zm5.83-5.45-.67-.74c1-.91,2-1.8,3-2.67l.66.76C49.22,44.68,48.22,45.57,47.23,46.47Zm6-5.25-.64-.77c1-.86,2.06-1.72,3.09-2.55l.63.78C55.29,39.51,54.27,40.35,53.24,41.22Zm6.2-5-.62-.79C59.89,34.57,61,33.76,62,33l.6.8C61.56,34.56,60.5,35.36,59.44,36.19Zm6.38-4.79-.58-.81c1.09-.79,2.19-1.56,3.27-2.31l.57.82C68,29.85,66.91,30.61,65.82,31.4Zm6.57-4.54L71.83,26c1.13-.75,2.26-1.48,3.37-2.18l.53.84C74.63,25.39,73.51,26.12,72.39,26.86Zm6.74-4.27-.52-.86c1.16-.7,2.32-1.38,3.46-2l.49.87C81.43,21.22,80.28,21.89,79.13,22.59Zm6.91-4-.47-.88c1.19-.65,2.38-1.28,3.54-1.88l.46.89C88.41,17.35,87.24,18,86,18.62ZM93.14,15l-.44-.9c1.24-.6,2.45-1.17,3.64-1.7l.41.91C95.57,13.81,94.36,14.37,93.14,15Zm7.27-3.28-.39-.93c1.27-.53,2.52-1,3.73-1.49l.36.94C102.91,10.66,101.67,11.16,100.41,11.69Zm7.44-2.84-.32-.95c1.29-.44,2.58-.86,3.83-1.23l.28,1C110.41,8,109.14,8.41,107.85,8.85Zm7.63-2.27-.24-1c1.38-.34,2.71-.62,4-.84l.17,1C118.14,6,116.84,6.25,115.48,6.58Z" fill="url(#a)"/><circle cx="123.93" cy="4" r="4" transform="translate(56.51 108.06) rotate(-58.91)" fill="#ec5b4b"/></svg>