<svg xmlns="http://www.w3.org/2000/svg" xmlns:xlink="http://www.w3.org/1999/xlink"><defs><style>
    .sprite-symbol-usage {display: none;}
    .sprite-symbol-usage:target {display: inline;}
  </style><symbol fill="none" viewBox="0 0 48 48" id="article_icon_1"><rect width="48" height="48" rx="24" fill="#55AAFD" /><path d="M23.999 25.43a3.12 3.12 0 1 0 0-6.24 3.12 3.12 0 0 0 0 6.24Z" stroke="#fff" stroke-width="1.5" /><path d="M15.622 20.49c1.97-8.66 14.8-8.65 16.76.01 1.15 5.08-2.01 9.38-4.78 12.04a5.193 5.193 0 0 1-7.21 0c-2.76-2.66-5.92-6.97-4.77-12.05Z" stroke="#fff" stroke-width="1.5" /></symbol><symbol fill="none" viewBox="0 0 48 48" id="article_icon_2"><rect width="48" height="48" rx="24" fill="#A566F6" /><path d="M34 24c0 5.52-4.48 10-10 10s-10-4.48-10-10 4.48-10 10-10 10 4.48 10 10Z" stroke="#fff" stroke-width="1.5" stroke-linecap="round" stroke-linejoin="round" /><path d="m27.709 27.18-3.1-1.85c-.54-.32-.98-1.09-.98-1.72v-4.1" stroke="#fff" stroke-width="1.5" stroke-linecap="round" stroke-linejoin="round" /></symbol><symbol fill="none" viewBox="0 0 48 48" id="article_icon_3"><rect width="48" height="48" rx="24" fill="#73C77B" /><path d="M30.002 19.16a.605.605 0 0 0-.19 0 2.573 2.573 0 0 1-2.48-2.58c0-1.43 1.15-2.58 2.58-2.58a2.58 2.58 0 0 1 2.58 2.58 2.589 2.589 0 0 1-2.49 2.58ZM28.971 26.44c1.37.23 2.88-.01 3.94-.72 1.41-.94 1.41-2.48 0-3.42-1.07-.71-2.6-.95-3.97-.71M17.97 19.16c.06-.01.13-.01.19 0a2.573 2.573 0 0 0 2.48-2.58c0-1.43-1.15-2.58-2.58-2.58a2.58 2.58 0 0 0-2.58 2.58c.01 1.4 1.11 2.53 2.49 2.58ZM19.001 26.44c-1.37.23-2.88-.01-3.94-.72-1.41-.94-1.41-2.48 0-3.42 1.07-.71 2.6-.95 3.97-.71M24.002 26.63a.605.605 0 0 0-.19 0 2.573 2.573 0 0 1-2.48-2.58c0-1.43 1.15-2.58 2.58-2.58a2.58 2.58 0 0 1 2.58 2.58c-.01 1.4-1.11 2.54-2.49 2.58ZM21.093 29.78c-1.41.94-1.41 2.48 0 3.42 1.6 1.07 4.22 1.07 5.82 0 1.41-.94 1.41-2.48 0-3.42-1.59-1.06-4.22-1.06-5.82 0Z" stroke="#fff" stroke-width="1.5" stroke-linecap="round" stroke-linejoin="round" /></symbol><symbol fill="none" viewBox="0 0 48 48" id="article_icon_4"><rect width="48" height="48" rx="24" fill="#6E6BF5" /><path d="M34 25v-4c0-5-2-7-7-7h-6c-5 0-7 2-7 7v6c0 5 2 7 7 7h4" stroke="#fff" stroke-width="1.5" stroke-linecap="round" stroke-linejoin="round" /><path d="M34 25v-4c0-5-2-7-7-7h-6c-5 0-7 2-7 7v6c0 5 2 7 7 7h4" stroke="#fff" stroke-width="1.5" stroke-linecap="round" stroke-linejoin="round" /><path d="M34 25v-4c0-5-2-7-7-7h-6c-5 0-7 2-7 7v6c0 5 2 7 7 7h4M28 31.43 29.58 33 33 29M19 22.5v3M24 22.5v3M29 22.5v3" stroke="#fff" stroke-width="1.5" stroke-linecap="round" stroke-linejoin="round" /></symbol><symbol fill="none" viewBox="0 0 14 15" id="close"><path d="m1 1.5 6 6m6 6-6-6m0 0 6-6m-6 6-6 6" stroke="currentColor" stroke-width="1.8" stroke-linecap="round" /></symbol><symbol fill="none" viewBox="0 0 24 24" id="graph"><path d="M21.67 6.95c-.64-2.17-2.45-3.98-4.62-4.62-1.65-.48-2.79-.44-3.58.15-.95.71-1.06 1.99-1.06 2.9v2.49c0 2.46 1.12 3.71 3.32 3.71h2.87c.9 0 2.19-.11 2.9-1.06.61-.78.66-1.92.17-3.57Z" fill="#FF4D40" /><path opacity=".2" d="M18.91 13.36c-.26-.3-.64-.47-1.03-.47H14.3c-1.76 0-3.19-1.43-3.19-3.19V6.12c0-.39-.17-.77-.47-1.03-.29-.26-.69-.38-1.07-.33-2.35.3-4.51 1.59-5.92 3.53-1.42 1.95-1.94 4.33-1.49 6.71.65 3.44 3.4 6.19 6.85 6.84.55.11 1.1.16 1.65.16a8.5 8.5 0 0 0 5.05-1.65c1.94-1.41 3.23-3.57 3.53-5.92.05-.39-.07-.78-.33-1.07Z" fill="#FF4D40" /></symbol><symbol fill="none" viewBox="0 0 24 24" id="handshake"><path fill-rule="evenodd" clip-rule="evenodd" d="m19.926 6.335-1.657.829 2.305 4.409 1.657-.825-.002-.004-2.303-4.409Zm2.64 5.083.334.672-2.316 1.154a.75.75 0 0 1-.999-.324l-3-5.738a.75.75 0 0 1 .33-1.018l2.341-1.17a1.49 1.49 0 0 1 1.997.642l2.305 4.413a1.5 1.5 0 0 1-.658 2.041l-.335-.672ZM4.078 6.233l-2.305 4.413 1.654.83L5.732 7.06l-1.654-.827Zm-.47-1.424a1.5 1.5 0 0 1 1.134.08L7.085 6.06a.75.75 0 0 1 .33 1.018l-3 5.747a.75.75 0 0 1-1.002.323L1.1 11.987a1.49 1.49 0 0 1-.658-2.033L2.747 5.54a1.5 1.5 0 0 1 .86-.732Z" fill="#fff" /><path fill-rule="evenodd" clip-rule="evenodd" d="M3.159 12.017a.75.75 0 0 1 1.053-.13L9.34 15.89a.627.627 0 0 1 .01.01l5.4 1.35c.007 0 .012 0 .018-.002a.046.046 0 0 0 .016-.008l3.414-3.414 1.48-1.74a.75.75 0 0 1 1.143.972l-1.5 1.763a.741.741 0 0 1-.04.044l-3.45 3.45a1.547 1.547 0 0 1-1.401.4l-.024-.006-5.438-1.36a1.5 1.5 0 0 1-.556-.28l-5.123-4a.75.75 0 0 1-.13-1.052Z" fill="#fff" /><path fill-rule="evenodd" clip-rule="evenodd" d="m13.436 7.584-3.665 3.655v.003a.01.01 0 0 0 0 .008.01.01 0 0 0 .002.002l.504.383a2.259 2.259 0 0 0 2.7-.002l1.199-.899a.75.75 0 0 1 .89-.007l4.126 3a.75.75 0 1 1-.883 1.213l-3.677-2.674-.756.568-.002.001a3.76 3.76 0 0 1-4.497 0l-.005-.004-.507-.384a1.51 1.51 0 0 1-.167-2.255l.007-.008 3.676-3.666a1.491 1.491 0 0 1 1.055-.434h3.815a.75.75 0 0 1 0 1.5h-3.815Z" fill="#fff" /><path fill-rule="evenodd" clip-rule="evenodd" d="m11.823 6.046 3.243 1.471a.75.75 0 0 0 .62-1.366L12.441 4.68h-.001a1.5 1.5 0 0 0-1.032-.075l-.003.001-4.81 1.406a.75.75 0 1 0 .421 1.44l4.806-1.405ZM4.683 16.759a.75.75 0 0 1 1.058-.076l2.117 1.836h.004l2.822.713a.75.75 0 0 1-.368 1.455l-2.814-.711a1.444 1.444 0 0 1-.628-.325l-2.115-1.834a.75.75 0 0 1-.076-1.058Z" fill="#fff" /></symbol><symbol fill="none" viewBox="0 0 24 24" id="like-shapes"><path d="M10.749 2.45c.69-.59 1.82-.59 2.52 0l1.58 1.36c.3.26.86.47 1.26.47h1.7c1.06 0 1.93.87 1.93 1.93v1.7c0 .39.21.96.47 1.26l1.36 1.58c.59.69.59 1.82 0 2.52l-1.36 1.58c-.26.3-.47.86-.47 1.26v1.7c0 1.06-.87 1.93-1.93 1.93h-1.7c-.39 0-.96.21-1.26.47l-1.58 1.36c-.69.59-1.82.59-2.52 0l-1.58-1.36c-.3-.26-.86-.47-1.26-.47h-1.73c-1.06 0-1.93-.87-1.93-1.93V16.1c0-.39-.21-.95-.46-1.25l-1.35-1.59c-.58-.69-.58-1.81 0-2.5l1.35-1.59c.25-.3.46-.86.46-1.25V6.21c0-1.06.87-1.93 1.93-1.93h1.73c.39 0 .96-.21 1.26-.47l1.58-1.36Z" stroke="#FF4D40" stroke-width="1.5" stroke-linecap="round" stroke-linejoin="round" /><g opacity=".4" stroke="#FF4D40" stroke-width="1.5"><path d="m9.891 14.82 1.45 1.12c.19.19.61.28.89.28h1.77c.56 0 1.17-.42 1.31-.98l1.12-3.42c.23-.65-.19-1.22-.89-1.22h-1.87c-.28 0-.51-.23-.47-.56l.23-1.5c.09-.42-.19-.89-.61-1.03-.37-.14-.84.05-1.03.33l-1.92 2.85" stroke-miterlimit="10" /><path d="M7.5 14.82v-4.58c0-.66.28-.89.94-.89h.47c.65 0 .94.23.94.89v4.58c0 .65-.28.89-.94.89h-.47c-.66 0-.94-.23-.94-.89Z" stroke-linecap="round" stroke-linejoin="round" /></g></symbol><symbol fill="currentcolor" viewBox="0 0 12.71 12" id="linkedin"><path class="cls-1" d="M2.67 1.33a1.333 1.333 0 0 1-1.33 1.33c-.35 0-.69-.14-.94-.39-.26-.24-.4-.58-.4-.94A1.333 1.333 0 0 1 1.33 0a1.333 1.333 0 0 1 1.33 1.33Zm.04 2.32H.04V12h2.67V3.65Zm4.21 0H4.27V12H6.9V7.62c0-2.44 3.18-2.67 3.18 0V12h2.63V6.71C12.71 2.6 8 2.75 6.9 4.77l.03-1.12Z" fill="currentColor" /></symbol><symbol viewBox="0 0 24 24" id="location"><path d="M12 14.18a3.87 3.87 0 1 1 3.87-3.87A3.88 3.88 0 0 1 12 14.18Zm0-6.24a2.37 2.37 0 1 0 2.37 2.37A2.37 2.37 0 0 0 12 7.94Z" fill="currentColor" /><path d="M12 22.75a6 6 0 0 1-4.13-1.67c-2.95-2.84-6.2-7.36-5-12.76A9.12 9.12 0 0 1 12 1.25a9.1 9.1 0 0 1 9.11 7.08c1.22 5.4-2 9.92-5 12.75A5.91 5.91 0 0 1 12 22.75ZM4.35 8.66C3.29 13.37 6.24 17.43 8.91 20a4.43 4.43 0 0 0 6.17 0c2.67-2.57 5.64-6.62 4.57-11.33A7.56 7.56 0 0 0 12 2.75a7.56 7.56 0 0 0-7.65 5.91Z" fill="currentColor" /></symbol><symbol viewBox="0 0 24 24" id="mail"><path d="m16.53 8.41-3.13 2.5a2.39 2.39 0 0 1-2.81 0l-3.12-2.5a.75.75 0 0 0-.94 1.18l3.12 2.5a3.92 3.92 0 0 0 4.69 0l3.13-2.5a.75.75 0 1 0-.94-1.18Z" fill="currentColor" /><path d="M17 2.75H7c-3.65 0-5.75 2.1-5.75 5.75v7c0 3.65 2.1 5.75 5.75 5.75h10c3.65 0 5.75-2.1 5.75-5.75v-7c0-3.65-2.1-5.75-5.75-5.75Zm4.25 12.75c0 2.86-1.39 4.25-4.25 4.25H7c-2.86 0-4.25-1.39-4.25-4.25v-7c0-2.86 1.39-4.25 4.25-4.25h10c2.86 0 4.25 1.39 4.25 4.25Z" fill="currentColor" /></symbol><symbol fill="none" viewBox="0 0 25 24" id="message-notif"><path d="M20.5 6.75a2.75 2.75 0 1 0 0-5.5 2.75 2.75 0 0 0 0 5.5Z" fill="#FF4D40" /><path opacity=".4" d="M20.5 8c-2.21 0-4-1.79-4-4 0-.73.21-1.41.56-2H7.5c-2.76 0-5 2.23-5 4.98v6.98c0 2.75 2.24 4.98 5 4.98H9c.27 0 .63.18.8.4l1.5 1.99c.66.88 1.74.88 2.4 0l1.5-1.99c.19-.25.49-.4.8-.4h1.5c2.76 0 5-2.23 5-4.98V7.44c-.59.35-1.27.56-2 .56Z" fill="#FF4D40" /><path d="M12.5 12c-.56 0-1-.45-1-1s.45-1 1-1 1 .45 1 1-.44 1-1 1ZM16.5 12c-.56 0-1-.45-1-1s.45-1 1-1 1 .45 1 1-.44 1-1 1ZM8.5 12c-.56 0-1-.45-1-1s.45-1 1-1 1 .45 1 1-.44 1-1 1Z" fill="#FF4D40" /></symbol><symbol fill="none" viewBox="0 0 22 22" id="phone"><path d="M20.97 17.33c0 .36-.08.73-.25 1.09-.17.36-.39.7-.68 1.02-.49.54-1.03.93-1.64 1.18-.6.25-1.25.38-1.95.38-1.02 0-2.11-.24-3.26-.73s-2.3-1.15-3.44-1.98a28.75 28.75 0 0 1-3.28-2.8 28.414 28.414 0 0 1-2.79-3.27c-.82-1.14-1.48-2.28-1.96-3.41C1.24 7.67 1 6.58 1 5.54c0-.68.12-1.33.36-1.93.24-.61.62-1.17 1.15-1.67C3.15 1.31 3.85 1 4.59 1c.28 0 .56.06.81.18.26.12.49.3.67.56l2.32 3.27c.18.25.31.48.4.7.09.21.14.42.14.61 0 .24-.07.48-.21.71-.13.23-.32.47-.56.71l-.76.79c-.11.11-.16.24-.16.4 0 .08.01.15.03.23.03.08.06.14.08.2.18.33.49.76.93 1.28.45.52.93 1.05 1.45 1.58.54.53 1.06 1.02 1.59 1.47.52.44.95.74 1.29.92.05.02.11.05.18.08.08.03.16.04.25.04.17 0 .3-.06.41-.17l.76-.75c.25-.25.49-.44.72-.56.23-.14.46-.21.71-.21.19 0 .39.04.61.13.22.09.45.22.7.39l3.31 2.35c.26.18.44.39.55.64.1.25.16.5.16.78Z" stroke="currentColor" stroke-width="1.5" stroke-miterlimit="10" /></symbol><symbol fill="none" viewBox="0 0 24 24" id="presentation-chart"><path fill-rule="evenodd" clip-rule="evenodd" d="M2.25 5.25a1.5 1.5 0 0 1 1.5-1.5h16.5a1.5 1.5 0 0 1 1.5 1.5V16.5a1.5 1.5 0 0 1-1.5 1.5H3.75a1.5 1.5 0 0 1-1.5-1.5V5.25Zm18 0H3.75V16.5h16.5V5.25Z" fill="#fff" /><path fill-rule="evenodd" clip-rule="evenodd" d="M14.531 16.664a.75.75 0 0 1 1.055.117l3 3.75a.75.75 0 0 1-1.172.938l-3-3.75a.75.75 0 0 1 .117-1.055ZM9.469 16.664a.75.75 0 0 1 .117 1.054l-3 3.75a.75.75 0 1 1-1.172-.936l3-3.75a.75.75 0 0 1 1.055-.118ZM9 10.5a.75.75 0 0 1 .75.75v2.25a.75.75 0 0 1-1.5 0v-2.25A.75.75 0 0 1 9 10.5ZM12 9a.75.75 0 0 1 .75.75v3.75a.75.75 0 0 1-1.5 0V9.75A.75.75 0 0 1 12 9ZM15 7.5a.75.75 0 0 1 .75.75v5.25a.75.75 0 0 1-1.5 0V8.25A.75.75 0 0 1 15 7.5ZM12 1.5a.75.75 0 0 1 .75.75V4.5a.75.75 0 0 1-1.5 0V2.25A.75.75 0 0 1 12 1.5Z" fill="#fff" /></symbol><symbol fill="none" viewBox="0 0 24 24" id="rocket-launch"><path fill-rule="evenodd" clip-rule="evenodd" d="M7.405 14.939a.75.75 0 0 1-.472.95c-1.271.427-1.947 1.495-2.309 2.58-.143.43-.23.846-.282 1.189a7.235 7.235 0 0 0 1.189-.283c1.085-.361 2.152-1.037 2.58-2.308a.75.75 0 0 1 1.422.478c-.641 1.907-2.227 2.82-3.528 3.253a8.854 8.854 0 0 1-2.468.436h-.021v-.75h-.75v-.007a1.936 1.936 0 0 1 0-.06c.002-.037.003-.09.007-.156a8.85 8.85 0 0 1 .428-2.266c.433-1.3 1.347-2.887 3.254-3.528a.75.75 0 0 1 .95.472Zm-3.89 5.545h-.75c0 .414.336.75.75.75v-.75ZM19.856 4.145c-.87-.126-3.013-.173-5.206 2.02L8.815 12 12 15.186l5.835-5.835c2.193-2.193 2.146-4.336 2.02-5.206Zm.218-1.484c-1.198-.174-3.866-.175-6.485 2.443L7.224 11.47a.75.75 0 0 0 0 1.06l4.246 4.247a.75.75 0 0 0 1.061 0l6.366-6.365c2.618-2.619 2.617-5.287 2.443-6.485a1.481 1.481 0 0 0-1.266-1.266Z" fill="#fff" /><path fill-rule="evenodd" clip-rule="evenodd" d="M17.306 10.19a.75.75 0 0 1 .75.75v6.067a1.5 1.5 0 0 1-.446 1.047l-3.027 3.036a1.5 1.5 0 0 1-2.53-.768h-.001l-.787-3.928a.75.75 0 1 1 1.47-.295l.788 3.93 3.027-3.037a.354.354 0 0 1 .006-.006V10.94a.75.75 0 0 1 .75-.75ZM6.992 5.943h6.067a.75.75 0 0 1 0 1.5H7.013a1.18 1.18 0 0 1-.006.007l-3.036 3.026 3.929.788a.75.75 0 0 1-.295 1.471l-3.927-.787a1.499 1.499 0 0 1-.769-2.532h.002L5.945 6.39a1.5 1.5 0 0 1 1.047-.447Z" fill="#fff" /></symbol><symbol fill="none" viewBox="0 0 25 24" id="share"><path opacity=".34" d="M17.46 6.17c2 1.39 3.38 3.6 3.66 6.15M3.988 12.37a8.601 8.601 0 0 1 3.6-6.15M8.691 20.94c1.16.59 2.48.92 3.87.92 1.34 0 2.6-.3 3.73-.85" stroke="#fff" stroke-width="1.5" stroke-linecap="round" stroke-linejoin="round" /><path d="M12.561 7.7a2.78 2.78 0 1 0 0-5.56 2.78 2.78 0 0 0 0 5.56ZM5.33 19.92a2.78 2.78 0 1 0 0-5.56 2.78 2.78 0 0 0 0 5.56ZM19.67 19.92a2.78 2.78 0 1 0 0-5.56 2.78 2.78 0 0 0 0 5.56Z" stroke="#fff" stroke-width="1.5" stroke-linecap="round" stroke-linejoin="round" /></symbol><symbol fill="none" viewBox="0 0 24 24" id="share_red"><path opacity=".34" d="M16.96 6.17c2 1.39 3.38 3.6 3.66 6.15M3.488 12.37a8.601 8.601 0 0 1 3.6-6.15M8.191 20.94c1.16.59 2.48.92 3.87.92 1.34 0 2.6-.3 3.73-.85" stroke="#FF4D40" stroke-width="1.5" stroke-linecap="round" stroke-linejoin="round" /><path d="M12.061 7.7a2.78 2.78 0 1 0 0-5.56 2.78 2.78 0 0 0 0 5.56ZM4.83 19.92a2.78 2.78 0 1 0 0-5.56 2.78 2.78 0 0 0 0 5.56ZM19.17 19.92a2.78 2.78 0 1 0 0-5.56 2.78 2.78 0 0 0 0 5.56Z" stroke="#FF4D40" stroke-width="1.5" stroke-linecap="round" stroke-linejoin="round" /></symbol><symbol viewBox="0 0 20 20" id="status-up"><path d="M14.19 0H5.81C2.17 0 0 2.17 0 5.81v8.37C0 17.83 2.17 20 5.81 20h8.37c3.64 0 5.82-2.17 5.82-5.81V5.81C20 2.17 17.83 0 14.19 0Z" fill="currentColor" /><path d="M4.88 16.9a.76.76 0 0 1-.75-.75v-2.07a.75.75 0 0 1 1.5 0v2.07a.75.75 0 0 1-.75.75ZM10 16.9a.76.76 0 0 1-.75-.75V12a.75.75 0 0 1 1.5 0v4.15a.75.75 0 0 1-.75.75ZM15.12 16.9a.76.76 0 0 1-.75-.75V9.93a.75.75 0 0 1 1.5 0v6.22a.74.74 0 0 1-.75.75ZM15.87 3.82a.9.9 0 0 0 0-.16v-.13l-.07-.11a.58.58 0 0 0-.1-.12h-.09l-.14-.08H12.2a.75.75 0 0 0 0 1.5h1.25A18.15 18.15 0 0 1 4.7 9.71a.75.75 0 0 0 .18 1.48h.18a19.53 19.53 0 0 0 9.31-5.36v1a.75.75 0 0 0 1.5 0v-3Z" fill="#ff5944" /></symbol><symbol fill="none" viewBox="0 0 20 20" id="status-up_1"><path opacity=".2" d="M14.19 0H5.81C2.17 0 0 2.17 0 5.81v8.37C0 17.83 2.17 20 5.81 20h8.37c3.64 0 5.81-2.17 5.81-5.81V5.81C20 2.17 17.83 0 14.19 0Z" fill="#FF4D40" /><path d="M4.88 16.9c-.41 0-.75-.34-.75-.75v-2.07c0-.41.34-.75.75-.75s.75.34.75.75v2.07c0 .42-.34.75-.75.75ZM10 16.9c-.41 0-.75-.34-.75-.75V12c0-.41.34-.75.75-.75s.75.34.75.75v4.15c0 .42-.34.75-.75.75ZM15.12 16.9c-.41 0-.75-.34-.75-.75V9.93c0-.41.34-.75.75-.75s.75.34.75.75v6.22c0 .42-.33.75-.75.75ZM15.87 3.82c0-.05-.02-.11-.03-.16l-.03-.13c-.02-.04-.05-.07-.07-.11-.03-.04-.06-.09-.1-.12-.01-.01-.01-.02-.02-.02-.03-.02-.06-.03-.09-.05a.638.638 0 0 0-.14-.08c-.05-.02-.1-.02-.15-.03-.04-.01-.07-.02-.11-.02H12.2c-.41 0-.75.34-.75.75s.34.75.75.75h1.25C11.07 7.1 8.07 8.86 4.7 9.71c-.4.1-.65.51-.55.91.08.34.39.57.73.57.06 0 .12-.01.18-.02 3.57-.89 6.76-2.74 9.31-5.36v.97c0 .41.34.75.75.75s.75-.34.75-.75V3.82Z" fill="#FF4D40" /></symbol><symbol fill="none" viewBox="0 0 24 24" id="strategy"><path fill-rule="evenodd" clip-rule="evenodd" d="M6.375 15.75a1.875 1.875 0 1 0 0 3.75 1.875 1.875 0 0 0 0-3.75ZM3 17.625a3.375 3.375 0 1 1 6.75 0 3.375 3.375 0 0 1-6.75 0ZM3.22 6.22a.75.75 0 0 1 1.06 0l3.75 3.75a.75.75 0 1 1-1.06 1.06L3.22 7.28a.75.75 0 0 1 0-1.06Z" fill="#fff" /><path fill-rule="evenodd" clip-rule="evenodd" d="M8.03 6.22a.75.75 0 0 1 0 1.06l-3.75 3.75a.75.75 0 1 1-1.06-1.06l3.75-3.75a.75.75 0 0 1 1.06 0ZM15.97 15.22a.75.75 0 0 1 1.06 0l3.75 3.75a.75.75 0 1 1-1.06 1.06l-3.75-3.75a.75.75 0 0 1 0-1.06Z" fill="#fff" /><path fill-rule="evenodd" clip-rule="evenodd" d="M20.78 15.22a.75.75 0 0 1 0 1.06l-3.75 3.75a.75.75 0 1 1-1.06-1.06l3.75-3.75a.75.75 0 0 1 1.06 0ZM12 3.75a.75.75 0 0 1 .75-.75h3.75a.75.75 0 0 1 0 1.5h-3v3a.75.75 0 0 1-1.5 0V3.75Z" fill="#fff" /><path fill-rule="evenodd" clip-rule="evenodd" d="M12.22 3.22a.75.75 0 0 1 1.06 0l1.5 1.5c2.088 2.087 2.338 4.465 1.575 6.427-.738 1.898-2.42 3.392-4.173 3.83a.75.75 0 1 1-.364-1.455c1.248-.311 2.565-1.442 3.14-2.919.55-1.413.424-3.16-1.238-4.823l-1.5-1.5a.75.75 0 0 1 0-1.06Z" fill="#fff" /></symbol><symbol fill="none" viewBox="0 0 16 16" id="textarea_arrow"><path d="M3 13 13 3M9 13l4-4" stroke="currentColor" /></symbol><symbol fill="none" viewBox="0 0 24 24" id="user"><path opacity=".4" d="M9 2C6.38 2 4.25 4.13 4.25 6.75c0 2.57 2.01 4.65 4.63 4.74.08-.01.16-.01.22 0h.07a4.738 4.738 0 0 0 4.58-4.74C13.75 4.13 11.62 2 9 2Z" fill="#FF4D40" /><path d="M14.08 14.15c-2.79-1.86-7.34-1.86-10.15 0-1.27.85-1.97 2-1.97 3.23s.7 2.37 1.96 3.21C5.32 21.53 7.16 22 9 22c1.84 0 3.68-.47 5.08-1.41 1.26-.85 1.96-1.99 1.96-3.23-.01-1.23-.7-2.37-1.96-3.21Z" fill="#FF4D40" /><path opacity=".4" d="M19.99 7.34c.16 1.94-1.22 3.64-3.13 3.87h-.05c-.06 0-.12 0-.17.02-.97.05-1.86-.26-2.53-.83 1.03-.92 1.62-2.3 1.5-3.8a4.64 4.64 0 0 0-.77-2.18 3.592 3.592 0 0 1 5.15 2.92Z" fill="#FF4D40" /><path d="M21.99 16.59c-.08.97-.7 1.81-1.74 2.38-1 .55-2.26.81-3.51.78.72-.65 1.14-1.46 1.22-2.32.1-1.24-.49-2.43-1.67-3.38-.67-.53-1.45-.95-2.3-1.26 2.21-.64 4.99-.21 6.7 1.17.92.74 1.39 1.67 1.3 2.63Z" fill="#FF4D40" /></symbol><symbol fill="none" viewBox="0 0 48 48" id="we_are_1"><rect width="48" height="48" rx="24" fill="#6E6BF5" /><path fill-rule="evenodd" clip-rule="evenodd" d="M14.25 17.25a1.5 1.5 0 0 1 1.5-1.5h16.5a1.5 1.5 0 0 1 1.5 1.5V28.5a1.5 1.5 0 0 1-1.5 1.5h-16.5a1.5 1.5 0 0 1-1.5-1.5V17.25Zm18 0h-16.5V28.5h16.5V17.25Z" fill="#fff" /><path fill-rule="evenodd" clip-rule="evenodd" d="M26.532 28.664a.75.75 0 0 1 1.054.117l3 3.75a.75.75 0 0 1-1.172.938l-3-3.75a.75.75 0 0 1 .117-1.055ZM21.468 28.664a.75.75 0 0 1 .118 1.054l-3 3.75a.75.75 0 1 1-1.172-.937l3-3.75a.75.75 0 0 1 1.054-.117ZM21 22.5a.75.75 0 0 1 .75.75v2.25a.75.75 0 0 1-1.5 0v-2.25a.75.75 0 0 1 .75-.75ZM24 21a.75.75 0 0 1 .75.75v3.75a.75.75 0 0 1-1.5 0v-3.75A.75.75 0 0 1 24 21ZM27 19.5a.75.75 0 0 1 .75.75v5.25a.75.75 0 0 1-1.5 0v-5.25a.75.75 0 0 1 .75-.75ZM24 13.5a.75.75 0 0 1 .75.75v2.25a.75.75 0 0 1-1.5 0v-2.25a.75.75 0 0 1 .75-.75Z" fill="#fff" /></symbol><symbol fill="none" viewBox="0 0 48 48" id="we_are_2"><rect width="48" height="48" rx="24" fill="#A566F7" /><path fill-rule="evenodd" clip-rule="evenodd" d="M18.375 27.75a1.875 1.875 0 1 0 0 3.75 1.875 1.875 0 0 0 0-3.75ZM15 29.625a3.375 3.375 0 1 1 6.75 0 3.375 3.375 0 0 1-6.75 0ZM15.22 18.22a.75.75 0 0 1 1.06 0l3.75 3.75a.75.75 0 1 1-1.06 1.06l-3.75-3.75a.75.75 0 0 1 0-1.06Z" fill="#fff" /><path fill-rule="evenodd" clip-rule="evenodd" d="M20.03 18.22a.75.75 0 0 1 0 1.06l-3.75 3.75a.75.75 0 1 1-1.06-1.06l3.75-3.75a.75.75 0 0 1 1.06 0ZM27.97 27.22a.75.75 0 0 1 1.06 0l3.75 3.75a.75.75 0 1 1-1.06 1.06l-3.75-3.75a.75.75 0 0 1 0-1.06Z" fill="#fff" /><path fill-rule="evenodd" clip-rule="evenodd" d="M32.78 27.22a.75.75 0 0 1 0 1.06l-3.75 3.75a.75.75 0 1 1-1.06-1.06l3.75-3.75a.75.75 0 0 1 1.06 0ZM24 15.75a.75.75 0 0 1 .75-.75h3.75a.75.75 0 0 1 0 1.5h-3v3a.75.75 0 0 1-1.5 0v-3.75Z" fill="#fff" /><path fill-rule="evenodd" clip-rule="evenodd" d="M24.22 15.22a.75.75 0 0 1 1.06 0l1.5 1.5c2.088 2.087 2.338 4.465 1.575 6.427-.738 1.898-2.42 3.392-4.173 3.83a.75.75 0 1 1-.364-1.455c1.248-.311 2.565-1.442 3.14-2.919.55-1.413.424-3.16-1.238-4.823l-1.5-1.5a.75.75 0 0 1 0-1.06Z" fill="#fff" /></symbol><symbol viewBox="0 0 48 48" id="why_icon_0"><path d="M24 18a.76.76 0 0 1 .75.75v4.5h4.5a.75.75 0 0 1 0 1.5H24a.76.76 0 0 1-.75-.75v-5.25A.76.76 0 0 1 24 18Z" fill="currentColor" fill-rule="evenodd" /><path d="M24 16.5a7.5 7.5 0 1 0 7.5 7.5 7.5 7.5 0 0 0-7.5-7.5ZM15 24a9 9 0 1 1 9 9 9 9 0 0 1-9-9ZM29.83 13.93a.75.75 0 0 1 1.07 0l3.17 3.17A.75.75 0 0 1 33 18.17L29.83 15a.75.75 0 0 1 0-1.07ZM18.17 13.93a.75.75 0 0 1 0 1.06L15 18.17a.75.75 0 0 1-1.06-1.07l3.17-3.17a.75.75 0 0 1 1.06 0Z" fill="currentColor" fill-rule="evenodd" /><path d="M24 48a24 24 0 1 1 24-24 24 24 0 0 1-24 24Zm0-47a23 23 0 1 0 23 23A23 23 0 0 0 24 1Z" fill="currentColor" /></symbol><symbol viewBox="0 0 48 48" id="why_icon_1"><path d="M23.25 24a.76.76 0 0 1 .75-.75h8.25a.75.75 0 0 1 0 1.5H24a.76.76 0 0 1-.75-.75ZM23.25 18a.76.76 0 0 1 .75-.75h8.25a.75.75 0 0 1 0 1.5H24a.76.76 0 0 1-.75-.75ZM23.25 30a.76.76 0 0 1 .75-.75h8.25a.75.75 0 0 1 0 1.5H24a.76.76 0 0 1-.75-.75ZM21.18 16a.75.75 0 0 1-.05 1.06l-3.25 3a.74.74 0 0 1-1 0l-1.62-1.5a.75.75 0 1 1 1-1.1l1.11 1L20.12 16a.76.76 0 0 1 1.06 0ZM21.18 22a.75.75 0 0 1-.05 1.06l-3.25 3a.74.74 0 0 1-1 0l-1.62-1.5a.75.75 0 1 1 1-1.1l1.11 1L20.12 22a.76.76 0 0 1 1.06 0ZM21.18 28a.75.75 0 0 1-.05 1.06l-3.25 3a.74.74 0 0 1-1 0l-1.62-1.5a.75.75 0 1 1 1-1.1l1.11 1L20.12 28a.76.76 0 0 1 1.06 0Z" fill="currentColor" fill-rule="evenodd" /><path d="M24 48a24 24 0 1 1 24-24 24 24 0 0 1-24 24Zm0-47a23 23 0 1 0 23 23A23 23 0 0 0 24 1Z" fill="currentColor" /></symbol><symbol viewBox="0 0 48 48" id="why_icon_2"><path d="M24 22.13a3 3 0 1 0 3 3 3 3 0 0 0-3-3Zm-4.5 3a4.5 4.5 0 1 1 4.5 4.5 4.49 4.49 0 0 1-4.5-4.5ZM32.56 24.14a4.75 4.75 0 0 0-2.18-.51.75.75 0 0 1-.75-.75.73.73 0 0 1 .74-.75 6.2 6.2 0 0 1 2.86.67 6.37 6.37 0 0 1 2.25 1.88.75.75 0 1 1-1.21.89 4.93 4.93 0 0 0-1.71-1.43ZM17.62 23.63a4.75 4.75 0 0 0-2.18.51 4.93 4.93 0 0 0-1.71 1.43.75.75 0 1 1-1.21-.89 6.37 6.37 0 0 1 2.25-1.88 6.2 6.2 0 0 1 2.86-.67.75.75 0 0 1 .75.75.76.76 0 0 1-.76.75Z" fill="currentColor" fill-rule="evenodd" /><path d="M24 29.63a5.2 5.2 0 0 0-2.79.8 5.3 5.3 0 0 0-1.94 2.15.75.75 0 0 1-1.34-.66 6.75 6.75 0 0 1 12.14 0 .75.75 0 1 1-1.34.66 5.3 5.3 0 0 0-1.94-2.15 5.23 5.23 0 0 0-2.79-.8ZM18.18 17.7a2.17 2.17 0 0 0-1.26 0 2.21 2.21 0 0 0-1 .7 2.17 2.17 0 0 0-.5 1.15 2.19 2.19 0 0 0 .2 1.24 2.25 2.25 0 0 0 .83 1 2.33 2.33 0 0 0 1.2.35.73.73 0 0 1 .75.74.76.76 0 0 1-.75.76 3.8 3.8 0 0 1-2-.59 3.68 3.68 0 0 1-1.38-1.57 3.73 3.73 0 0 1 .5-4 3.71 3.71 0 0 1 1.73-1.18 3.81 3.81 0 0 1 2.09-.07 3.73 3.73 0 0 1 1.8 1.07 3.69 3.69 0 0 1 .95 1.86.75.75 0 1 1-1.47.28 2.31 2.31 0 0 0-.57-1.12 2.2 2.2 0 0 0-1.12-.62ZM31.07 17.74a2.13 2.13 0 0 0-1.25 0 2.2 2.2 0 0 0-1.08.63 2.31 2.31 0 0 0-.57 1.12.75.75 0 1 1-1.47-.28 3.69 3.69 0 0 1 .95-1.86 3.73 3.73 0 0 1 1.8-1.07 3.81 3.81 0 0 1 2.09.07 3.76 3.76 0 0 1 2.56 3.1 3.75 3.75 0 0 1-.33 2.06A3.68 3.68 0 0 1 32.39 23a3.81 3.81 0 0 1-2 .59.76.76 0 0 1-.74-.76.73.73 0 0 1 .75-.74 2.33 2.33 0 0 0 1.2-.35 2.25 2.25 0 0 0 .83-1 2.19 2.19 0 0 0 .2-1.24 2.17 2.17 0 0 0-.5-1.15 2.19 2.19 0 0 0-1.06-.61Z" fill="currentColor" fill-rule="evenodd" /><path d="M24 48a24 24 0 1 1 24-24 24 24 0 0 1-24 24Zm0-47a23 23 0 1 0 23 23A23 23 0 0 0 24 1Z" fill="currentColor" /></symbol></defs><use id="article_icon_1-usage" xlink:href="#article_icon_1" class="sprite-symbol-usage" /><use id="article_icon_2-usage" xlink:href="#article_icon_2" class="sprite-symbol-usage" /><use id="article_icon_3-usage" xlink:href="#article_icon_3" class="sprite-symbol-usage" /><use id="article_icon_4-usage" xlink:href="#article_icon_4" class="sprite-symbol-usage" /><use id="close-usage" xlink:href="#close" class="sprite-symbol-usage" /><use id="graph-usage" xlink:href="#graph" class="sprite-symbol-usage" /><use id="handshake-usage" xlink:href="#handshake" class="sprite-symbol-usage" /><use id="like-shapes-usage" xlink:href="#like-shapes" class="sprite-symbol-usage" /><use id="linkedin-usage" xlink:href="#linkedin" class="sprite-symbol-usage" /><use id="location-usage" xlink:href="#location" class="sprite-symbol-usage" /><use id="mail-usage" xlink:href="#mail" class="sprite-symbol-usage" /><use id="message-notif-usage" xlink:href="#message-notif" class="sprite-symbol-usage" /><use id="phone-usage" xlink:href="#phone" class="sprite-symbol-usage" /><use id="presentation-chart-usage" xlink:href="#presentation-chart" class="sprite-symbol-usage" /><use id="rocket-launch-usage" xlink:href="#rocket-launch" class="sprite-symbol-usage" /><use id="share-usage" xlink:href="#share" class="sprite-symbol-usage" /><use id="share_red-usage" xlink:href="#share_red" class="sprite-symbol-usage" /><use id="status-up-usage" xlink:href="#status-up" class="sprite-symbol-usage" /><use id="status-up_1-usage" xlink:href="#status-up_1" class="sprite-symbol-usage" /><use id="strategy-usage" xlink:href="#strategy" class="sprite-symbol-usage" /><use id="textarea_arrow-usage" xlink:href="#textarea_arrow" class="sprite-symbol-usage" /><use id="user-usage" xlink:href="#user" class="sprite-symbol-usage" /><use id="we_are_1-usage" xlink:href="#we_are_1" class="sprite-symbol-usage" /><use id="we_are_2-usage" xlink:href="#we_are_2" class="sprite-symbol-usage" /><use id="why_icon_0-usage" xlink:href="#why_icon_0" class="sprite-symbol-usage" /><use id="why_icon_1-usage" xlink:href="#why_icon_1" class="sprite-symbol-usage" /><use id="why_icon_2-usage" xlink:href="#why_icon_2" class="sprite-symbol-usage" /></svg>