<svg width="424" height="1646" viewBox="0 0 424 1646" fill="none" xmlns="http://www.w3.org/2000/svg">
<path d="M-339.999 80.5582C-223.451 264.134 -62.3037 550.127 -52.9999 436.037C-43.6961 321.947 -169.159 485.318 -8.04738 626.788C153.065 768.257 8.60404 935.265 7.13858 1056.12C5.67312 1176.98 137.819 1174.74 160.806 1293.72C193.178 1461.28 418.292 1527.51 422.976 1547.91" stroke="#FF4D40" stroke-linecap="round" stroke-dasharray="6 6"/>
<g clip-path="url(#clip0_415_127)">
<path d="M-323.945 98.5582C-207.396 282.134 -46.249 568.127 -36.9452 454.037C-27.6414 339.947 -153.105 503.318 8.0073 644.788C169.119 786.257 24.6587 953.265 23.1933 1074.12C21.7278 1194.98 153.873 1192.74 176.861 1311.72C209.232 1479.28 434.347 1545.51 439.03 1565.91" stroke="white" stroke-linecap="round" stroke-dasharray="6 6"/>
</g>
<defs>
<clipPath id="clip0_415_127">
<rect width="119" height="415" fill="white" transform="translate(111 1231)"/>
</clipPath>
</defs>
</svg>
