<svg xmlns="http://www.w3.org/2000/svg" width="100%" height="100%" viewBox="0 0 207 523"><path d="M1,522.19a.58.58,0,0,1-.18,0,.49.49,0,0,1-.29-.64l.06-.17a.5.5,0,0,1,.94.34l-.06.18A.52.52,0,0,1,1,522.19Zm2.17-5.79a.58.58,0,0,1-.18,0,.49.49,0,0,1-.29-.64q1.08-2.84,2.16-5.6a.5.5,0,1,1,.94.36c-.73,1.84-1.45,3.71-2.17,5.59A.49.49,0,0,1,3.17,516.4Zm4.39-11.17a.41.41,0,0,1-.19,0,.5.5,0,0,1-.28-.65c.77-1.87,1.53-3.72,2.3-5.55a.5.5,0,0,1,.65-.26.49.49,0,0,1,.27.65Q9.15,502.11,8,504.92A.51.51,0,0,1,7.56,505.23Zm4.65-11.06a.51.51,0,0,1-.2,0,.5.5,0,0,1-.26-.66c.81-1.85,1.63-3.68,2.44-5.48a.5.5,0,0,1,.66-.25.49.49,0,0,1,.25.66q-1.22,2.7-2.43,5.48A.5.5,0,0,1,12.21,494.17Zm4.94-10.92a.54.54,0,0,1-.21-.05.5.5,0,0,1-.24-.67q1.29-2.75,2.58-5.41a.51.51,0,0,1,.67-.24.5.5,0,0,1,.23.67q-1.29,2.67-2.58,5.41A.49.49,0,0,1,17.15,483.25Zm5.24-10.79a.59.59,0,0,1-.22,0,.49.49,0,0,1-.22-.67q1.36-2.72,2.75-5.34a.49.49,0,0,1,.67-.21.5.5,0,0,1,.21.67c-.92,1.75-1.83,3.52-2.74,5.33A.5.5,0,0,1,22.39,472.46ZM28,461.84a.46.46,0,0,1-.23-.06.49.49,0,0,1-.2-.68q1.45-2.66,2.92-5.24a.49.49,0,0,1,.68-.19.5.5,0,0,1,.19.68q-1.47,2.58-2.92,5.23A.49.49,0,0,1,28,461.84Zm5.93-10.42a.48.48,0,0,1-.26-.07.5.5,0,0,1-.17-.69q1.55-2.61,3.1-5.14a.51.51,0,0,1,.69-.16.5.5,0,0,1,.16.69q-1.54,2.51-3.09,5.12A.51.51,0,0,1,33.89,451.42Zm6.29-10.21a.47.47,0,0,1-.27-.08.5.5,0,0,1-.15-.69q1.65-2.55,3.3-5a.51.51,0,0,1,.7-.14.5.5,0,0,1,.13.7c-1.1,1.63-2.19,3.3-3.29,5A.48.48,0,0,1,40.18,441.21Zm6.7-9.94a.52.52,0,0,1-.29-.09.5.5,0,0,1-.12-.7Q48.23,428,50,425.61a.5.5,0,0,1,.81.59c-1.17,1.59-2.34,3.2-3.5,4.86A.54.54,0,0,1,46.88,431.27ZM54,421.62a.49.49,0,0,1-.4-.8c1.22-1.58,2.48-3.16,3.73-4.71A.52.52,0,0,1,58,416a.5.5,0,0,1,.07.7c-1.25,1.54-2.5,3.12-3.72,4.69A.48.48,0,0,1,54,421.62Zm7.56-9.29a.49.49,0,0,1-.32-.12.51.51,0,0,1-.06-.71c1.3-1.52,2.64-3,4-4.51a.49.49,0,0,1,.7,0,.51.51,0,0,1,0,.71c-1.33,1.47-2.65,3-4,4.49A.49.49,0,0,1,61.56,412.33Zm8-8.9a.49.49,0,0,1-.34-.14.5.5,0,0,1,0-.71c1.38-1.44,2.79-2.89,4.2-4.29a.5.5,0,0,1,.71.71c-1.4,1.4-2.81,2.83-4.19,4.27A.46.46,0,0,1,69.59,403.43ZM78.1,395a.46.46,0,0,1-.36-.16.5.5,0,0,1,0-.71c1.46-1.37,3-2.72,4.45-4a.49.49,0,0,1,.7.05.5.5,0,0,1,0,.7c-1.48,1.31-3,2.66-4.43,4A.49.49,0,0,1,78.1,395Zm9-7.92a.49.49,0,0,1-.38-.19.49.49,0,0,1,.06-.7c1.56-1.29,3.14-2.55,4.69-3.76a.5.5,0,1,1,.61.79c-1.54,1.2-3.11,2.46-4.66,3.74A.49.49,0,0,1,87.09,387.07Zm9.47-7.36a.51.51,0,0,1-.41-.2.51.51,0,0,1,.11-.7c1.62-1.18,3.27-2.34,4.92-3.46a.5.5,0,0,1,.69.14.49.49,0,0,1-.13.69c-1.64,1.11-3.28,2.27-4.89,3.44A.52.52,0,0,1,96.56,379.71Zm9.91-6.72a.52.52,0,0,1-.42-.24.49.49,0,0,1,.16-.69c1.69-1.06,3.41-2.12,5.13-3.13a.49.49,0,0,1,.68.18.51.51,0,0,1-.18.69c-1.7,1-3.42,2.05-5.1,3.11A.5.5,0,0,1,106.47,373Zm10.34-6.08a.49.49,0,0,1-.44-.26.51.51,0,0,1,.2-.68c1.74-1,3.53-1.89,5.32-2.79a.5.5,0,1,1,.45.89c-1.78.9-3.56,1.83-5.29,2.78A.53.53,0,0,1,116.81,366.91Zm10.7-5.41a.48.48,0,0,1-.45-.28.5.5,0,0,1,.24-.67c1.78-.83,3.62-1.66,5.48-2.47a.5.5,0,0,1,.39.92c-1.84.8-3.67,1.63-5.45,2.46A.52.52,0,0,1,127.51,361.5Zm11-4.77a.5.5,0,0,1-.19-1c1.82-.73,3.71-1.47,5.61-2.18a.5.5,0,0,1,.35.94c-1.9.71-3.77,1.44-5.58,2.17Zm11.23-4.21a.5.5,0,0,1-.47-.34.49.49,0,0,1,.31-.63c1.92-.68,3.82-1.33,5.68-1.95a.5.5,0,0,1,.63.32.5.5,0,0,1-.31.63c-1.86.62-3.75,1.26-5.67,1.94A.51.51,0,0,1,149.74,352.52Zm11.38-3.81a.48.48,0,0,1-.47-.35.49.49,0,0,1,.32-.62l4.7-1.51,1-.32a.5.5,0,0,1,.63.32.51.51,0,0,1-.33.63l-1,.32-4.7,1.51ZM172.55,345a.5.5,0,0,1-.15-1c1.95-.64,3.85-1.28,5.67-1.92a.5.5,0,1,1,.33,1q-2.75,1-5.69,1.92A.44.44,0,0,1,172.55,345Zm11.31-4a.51.51,0,0,1-.47-.32.51.51,0,0,1,.28-.65c2-.81,3.81-1.59,5.46-2.39a.49.49,0,0,1,.66.23.5.5,0,0,1-.23.67c-1.67.81-3.47,1.6-5.52,2.42A.39.39,0,0,1,183.86,341Zm10.71-5.32a.48.48,0,0,1-.42-.23.49.49,0,0,1,.15-.69,31.88,31.88,0,0,0,4.64-3.58.5.5,0,0,1,.69.73,33.79,33.79,0,0,1-4.79,3.69A.47.47,0,0,1,194.57,335.71Zm8.54-8.14a.49.49,0,0,1-.28-.09.5.5,0,0,1-.14-.69,22.07,22.07,0,0,0,1.38-2.41,12.24,12.24,0,0,0,1-2.84.5.5,0,0,1,.6-.37.49.49,0,0,1,.38.59,13.52,13.52,0,0,1-1.07,3.06,25.18,25.18,0,0,1-1.44,2.52A.51.51,0,0,1,203.11,327.57Zm2.62-11.38a.5.5,0,0,1-.49-.44,29.79,29.79,0,0,0-1.39-5.7.51.51,0,0,1,.32-.63.5.5,0,0,1,.63.31,30.89,30.89,0,0,1,1.43,5.9.5.5,0,0,1-.44.55ZM202,304.86a.48.48,0,0,1-.45-.28c-.81-1.67-1.75-3.43-2.82-5.26a.5.5,0,0,1,.87-.5c1.07,1.84,2,3.64,2.85,5.32a.51.51,0,0,1-.23.67A.44.44,0,0,1,202,304.86Zm-6-10.39a.52.52,0,0,1-.42-.22c-1-1.58-2.18-3.24-3.39-4.94a.49.49,0,0,1,.11-.69.51.51,0,0,1,.7.11c1.22,1.71,2.37,3.38,3.42,5a.5.5,0,0,1-.14.69A.48.48,0,0,1,196,294.47Zm-7-9.77a.51.51,0,0,1-.4-.2c-1.15-1.51-2.39-3.1-3.69-4.72a.51.51,0,0,1,.08-.71.5.5,0,0,1,.7.08c1.3,1.63,2.55,3.22,3.71,4.74a.5.5,0,0,1-.09.7A.51.51,0,0,1,189,284.7Zm-7.5-9.39a.5.5,0,0,1-.39-.18q-1.89-2.28-3.87-4.59a.51.51,0,0,1,.06-.71.49.49,0,0,1,.7.06c1.33,1.54,2.62,3.08,3.88,4.6a.49.49,0,0,1-.06.7A.51.51,0,0,1,181.53,275.31Zm-7.81-9.14a.48.48,0,0,1-.37-.17c-1.31-1.49-2.63-3-4-4.5a.51.51,0,0,1,0-.71.5.5,0,0,1,.71,0l4,4.51a.49.49,0,0,1,0,.7A.46.46,0,0,1,173.72,266.17Zm-8-9a.48.48,0,0,1-.37-.17l-4-4.45a.5.5,0,0,1,0-.71.49.49,0,0,1,.7,0l4,4.45a.51.51,0,0,1-.37.84Zm-8.09-8.9a.5.5,0,0,1-.37-.16l-4.05-4.43a.5.5,0,0,1,0-.71.5.5,0,0,1,.7,0l4.06,4.44a.49.49,0,0,1,0,.7A.5.5,0,0,1,157.65,248.29Zm-8.13-8.87a.46.46,0,0,1-.36-.16l-4.06-4.43a.5.5,0,0,1,0-.71.51.51,0,0,1,.71,0c1.34,1.48,2.7,3,4,4.44a.49.49,0,0,1,0,.7A.48.48,0,0,1,149.52,239.42Zm-8.09-8.86a.54.54,0,0,1-.37-.16l-4-4.47a.5.5,0,0,1,0-.7.5.5,0,0,1,.71,0l4,4.45a.5.5,0,0,1-.37.84Zm-8-8.95a.51.51,0,0,1-.38-.16c-1.34-1.52-2.66-3-4-4.52a.5.5,0,1,1,.75-.66q2,2.25,4,4.51a.51.51,0,0,1,0,.71A.54.54,0,0,1,133.41,221.61Zm-7.89-9.07a.52.52,0,0,1-.38-.17q-2-2.33-3.86-4.62a.5.5,0,0,1,.77-.63c1.26,1.52,2.54,3,3.86,4.6a.5.5,0,0,1-.06.7A.52.52,0,0,1,125.52,212.54Zm-7.64-9.28a.51.51,0,0,1-.39-.18c-1.29-1.63-2.53-3.23-3.69-4.76a.5.5,0,0,1,.09-.7.49.49,0,0,1,.7.1c1.16,1.52,2.4,3.12,3.68,4.73a.49.49,0,0,1-.39.81Zm-7.24-9.58a.52.52,0,0,1-.41-.21c-1.22-1.72-2.37-3.39-3.41-5a.5.5,0,0,1,.14-.69.51.51,0,0,1,.7.14c1,1.58,2.17,3.25,3.38,4.95a.5.5,0,0,1-.11.69A.46.46,0,0,1,110.64,193.68Zm-6.57-10.06a.5.5,0,0,1-.43-.25c-1.08-1.83-2-3.62-2.87-5.32a.5.5,0,1,1,.89-.44c.83,1.67,1.78,3.44,2.84,5.25a.51.51,0,0,1-.18.69A.59.59,0,0,1,104.07,183.62Zm-5.23-10.8a.49.49,0,0,1-.47-.33,35.22,35.22,0,0,1-1.63-5.84.5.5,0,0,1,.4-.58.49.49,0,0,1,.58.4,35.3,35.3,0,0,0,1.59,5.68.5.5,0,0,1-.3.64A.47.47,0,0,1,98.84,172.82Zm52.38-9.14c-.84,0-1.69,0-2.54-.09a.5.5,0,0,1-.46-.53.51.51,0,0,1,.53-.47,34.15,34.15,0,0,0,5.91-.09.51.51,0,0,1,.55.44.5.5,0,0,1-.45.55A34.22,34.22,0,0,1,151.22,163.68Zm-8.43-1a.25.25,0,0,1-.12,0,29.6,29.6,0,0,1-5.69-2.15.5.5,0,0,1-.23-.67.51.51,0,0,1,.67-.23,29,29,0,0,0,5.5,2.09.5.5,0,0,1,.36.6A.51.51,0,0,1,142.79,162.71Zm17.78-.45a.5.5,0,0,1-.16-1,19.78,19.78,0,0,0,5.23-2.58.52.52,0,0,1,.7.12.5.5,0,0,1-.12.7,21,21,0,0,1-5.49,2.71A.47.47,0,0,1,160.57,162.26Zm-63.66-1.14h0a.49.49,0,0,1-.45-.54,15.08,15.08,0,0,1,1.76-5.9.49.49,0,0,1,.67-.2.49.49,0,0,1,.2.68,14.56,14.56,0,0,0-1.64,5.51A.5.5,0,0,1,96.91,161.12Zm35.1-3.53a.57.57,0,0,1-.28-.08c-1.59-1.06-3.23-2.27-4.87-3.59a.5.5,0,1,1,.63-.77c1.61,1.29,3.22,2.48,4.79,3.52a.5.5,0,0,1,.14.7A.49.49,0,0,1,132,157.59Zm37.88-2.39a.59.59,0,0,1-.22,0,.5.5,0,0,1-.23-.67,6.81,6.81,0,0,0,.72-3,6.28,6.28,0,0,0-.49-2.4.5.5,0,1,1,.91-.39,7,7,0,0,1,.58,2.79,7.92,7.92,0,0,1-.82,3.43A.52.52,0,0,1,169.89,155.2Zm-67.44-4.34a.48.48,0,0,1-.39-.19.5.5,0,0,1,.07-.7,23.75,23.75,0,0,1,5.22-3.17.49.49,0,0,1,.66.25.49.49,0,0,1-.25.66,22.76,22.76,0,0,0-5,3A.51.51,0,0,1,102.45,150.86Zm20.19-.76a.51.51,0,0,1-.34-.14c-1.42-1.32-2.87-2.75-4.29-4.24a.5.5,0,0,1,.73-.69c1.4,1.47,2.83,2.89,4.24,4.2a.5.5,0,0,1,0,.71A.52.52,0,0,1,122.64,150.1Zm-9.44-4.36a.5.5,0,0,1-.13-1q1.08-.3,2.25-.57c1.23-.28,2.43-.55,3.61-.8a.5.5,0,0,1,.6.38.51.51,0,0,1-.39.6c-1.17.25-2.37.51-3.6.8-.76.17-1.5.36-2.21.56Zm52.92-.68a.42.42,0,0,1-.26-.08,21.37,21.37,0,0,0-5.37-2.31.5.5,0,0,1,.28-1,22.31,22.31,0,0,1,5.62,2.43.5.5,0,0,1,.15.69A.48.48,0,0,1,166.12,145.06Zm-41.2-1.85a.51.51,0,0,1-.49-.41.5.5,0,0,1,.41-.59c2-.36,4-.69,5.94-1a.5.5,0,0,1,.14,1c-1.91.27-3.9.6-5.91,1Zm11.88-1.69a.5.5,0,0,1-.05-1c2.07-.2,4.09-.35,6-.43a.48.48,0,0,1,.53.48.5.5,0,0,1-.48.52c-1.91.08-3.91.23-6,.43Zm18,0h-.06a59.3,59.3,0,0,0-5.93-.46.5.5,0,1,1,0-1c2.13.06,4.16.22,6,.46a.51.51,0,0,1,.43.56A.51.51,0,0,1,154.76,141.5Zm-40.42-.07a.52.52,0,0,1-.38-.17c-1.28-1.5-2.57-3.06-3.83-4.65a.5.5,0,0,1,.09-.7.49.49,0,0,1,.7.08c1.24,1.58,2.52,3.13,3.8,4.61a.51.51,0,0,1,0,.71A.5.5,0,0,1,114.34,141.43ZM106.91,132a.49.49,0,0,1-.41-.21c-1.16-1.6-2.31-3.26-3.44-4.94a.5.5,0,0,1,.14-.69.49.49,0,0,1,.69.13c1.12,1.67,2.27,3.33,3.42,4.91a.5.5,0,0,1-.11.7A.46.46,0,0,1,106.91,132Zm-6.68-10a.51.51,0,0,1-.43-.23c-1-1.69-2.08-3.43-3.08-5.17a.49.49,0,0,1,.18-.68.51.51,0,0,1,.69.18c1,1.73,2,3.46,3.06,5.14a.49.49,0,0,1-.16.69A.48.48,0,0,1,100.23,122Zm-6-10.4a.5.5,0,0,1-.44-.27c-.94-1.76-1.86-3.56-2.75-5.35a.5.5,0,0,1,.9-.45c.88,1.79,1.8,3.58,2.73,5.33a.5.5,0,0,1-.21.68A.46.46,0,0,1,94.25,111.63Zm-5.31-10.77a.49.49,0,0,1-.45-.29c-.83-1.81-1.64-3.67-2.41-5.51a.5.5,0,1,1,.92-.39c.77,1.84,1.58,3.68,2.4,5.48a.49.49,0,0,1-.46.71ZM84.3,89.79a.51.51,0,0,1-.47-.32c-.71-1.85-1.41-3.75-2.08-5.64a.51.51,0,0,1,.31-.64.5.5,0,0,1,.63.31c.67,1.87,1.36,3.76,2.07,5.61a.51.51,0,0,1-.28.65A.57.57,0,0,1,84.3,89.79Zm-4-11.32a.49.49,0,0,1-.47-.34c-.61-1.91-1.2-3.84-1.75-5.76a.51.51,0,0,1,.35-.62.49.49,0,0,1,.61.34c.55,1.91,1.14,3.84,1.74,5.73a.5.5,0,0,1-.32.63A.41.41,0,0,1,80.31,78.47ZM77,66.94a.49.49,0,0,1-.48-.38c-.5-1.92-1-3.89-1.41-5.85a.5.5,0,0,1,1-.22c.43,1.95.9,3.91,1.39,5.82a.5.5,0,0,1-.36.61ZM74.37,55.23a.49.49,0,0,1-.49-.4c-.38-2-.74-3.95-1.06-5.92a.5.5,0,0,1,.41-.58.49.49,0,0,1,.57.41c.33,2,.68,3.95,1.06,5.9a.5.5,0,0,1-.4.58ZM72.43,43.39a.49.49,0,0,1-.49-.43c-.27-2-.51-4-.71-6a.5.5,0,0,1,.45-.55.49.49,0,0,1,.54.45c.21,2,.44,4,.71,5.94a.51.51,0,0,1-.43.57ZM71.2,31.46a.51.51,0,0,1-.5-.47c-.14-2-.26-4-.34-6a.5.5,0,0,1,.48-.52.51.51,0,0,1,.52.47c.08,2,.2,4,.34,6a.5.5,0,0,1-.46.53Zm-.5-12a.5.5,0,0,1-.5-.5c0-.78,0-1.56,0-2.35,0-1.21,0-2.44,0-3.66a.51.51,0,0,1,.51-.49.49.49,0,0,1,.49.51c0,1.22,0,2.43,0,3.64,0,.78,0,1.56,0,2.34a.51.51,0,0,1-.5.51Zm.22-12h0A.5.5,0,0,1,70.42,7c.1-2,.23-4,.39-6a.5.5,0,0,1,.54-.45A.49.49,0,0,1,71.8,1c-.15,2-.28,4-.38,6A.51.51,0,0,1,70.92,7.47Z" fill="#ff4d40"/></svg>