<svg xmlns="http://www.w3.org/2000/svg" xmlns:xlink="http://www.w3.org/1999/xlink" width="100%" height="100%" viewBox="0 0 118.5 231.68"><defs><linearGradient id="a" x1="72" y1="84.67" x2="130.23" y2="161.06" gradientTransform="matrix(1, 0, 0, -1, 0, 234)" gradientUnits="userSpaceOnUse"><stop offset="0" stop-color="#e95a4a"/><stop offset="1" stop-color="#e95a4a" stop-opacity="0"/></linearGradient><linearGradient id="b" x1="61.74" y1="130.92" x2="116.47" y2="258.48" xlink:href="#a"/></defs><ellipse cx="4.56" cy="159.56" rx="4.56" ry="4.56" fill="#ec5b4b"/><ellipse cx="107.85" cy="178.85" rx="2.85" ry="2.85" fill="#ec5b4b"/><path d="M30,224.59l-1.7-.35a7.15,7.15,0,0,0,.14-1.4,7,7,0,0,0-.14-1.39l1.7-.36a8.6,8.6,0,0,1,0,3.5Zm-1.39-6.71-1.42,1a7.37,7.37,0,0,0-2.05-2l.94-1.46A9,9,0,0,1,28.65,217.88Zm-5.79-3.72-.32,1.71a7.93,7.93,0,0,0-2.86,0l-.32-1.71a9.65,9.65,0,0,1,3.5,0Zm-6.76,1.3.94,1.46a7.33,7.33,0,0,0-2,2l-1.43-1A9,9,0,0,1,16.1,215.46Zm-3.92,5.63a8.6,8.6,0,0,0,0,3.5l1.7-.35a7.15,7.15,0,0,1-.14-1.4,7,7,0,0,1,.14-1.39Zm1.39,6.72,1.43-1a7.3,7.3,0,0,0,2,1.95l-.94,1.47A9,9,0,0,1,13.57,227.81Zm5.79,3.71.32-1.71a7.93,7.93,0,0,0,2.86,0l.32,1.71a9.65,9.65,0,0,1-3.5,0Zm6.76-1.29-.94-1.47a7.33,7.33,0,0,0,2.05-1.95l1.42,1A9,9,0,0,1,26.12,230.23Z" fill="#ec5b4b" fill-rule="evenodd"/><path d="M23.94,214.16l-1-.32C35.06,178,80.1,173.56,103.57,176.3c-22.63-21-72.13-19.31-95.49-15.41l-.16-1c23.91-4,75.05-5.62,97.43,16.73l1.05,1.05-1.47-.2C82.22,174.41,36.07,178.12,23.94,214.16Z" fill="url(#a)"/><path d="M8.12,158.48l-.24-1,.22-.06.26,1Zm4.11-1.12-.28-1c1.28-.37,2.55-.75,3.81-1.15l.3.95C14.8,156.59,13.52,157,12.23,157.36Zm7.64-2.43-.32-.94q1.89-.66,3.75-1.35l.35.94C22.4,154,21.14,154.5,19.87,154.93Zm7.52-2.81-.38-.93c1.24-.5,2.46-1,3.67-1.54l.4.92C29.86,151.1,28.63,151.62,27.39,152.12Zm7.35-3.21-.43-.9c1.21-.57,2.4-1.15,3.58-1.75l.45.89C37.16,147.75,36,148.34,34.74,148.91Zm7.16-3.61-.48-.88q1.77-1,3.48-1.95l.5.87C44.25,144,43.08,144.66,41.9,145.3Zm7-4-.53-.85c1.13-.7,2.25-1.42,3.36-2.15l.55.84C51.12,139.85,50,140.57,48.85,141.28Zm6.7-4.42L55,136c1.09-.76,2.16-1.54,3.22-2.34l.6.8C57.73,135.3,56.64,136.09,55.55,136.86ZM62,132.05l-.62-.78c1-.83,2.06-1.67,3.07-2.53l.65.77C64.05,130.37,63,131.22,62,132.05Zm6.12-5.18-.66-.75c1-.89,2-1.79,2.92-2.7l.69.72C70.07,125.06,69.09,126,68.09,126.87Zm5.81-5.55-.71-.7c.93-1,1.85-1.91,2.75-2.88l.73.68C75.77,119.4,74.84,120.37,73.9,121.32Zm5.45-5.86-.75-.66c.88-1,1.73-2,2.58-3l.77.64C81.1,113.43,80.23,114.45,79.35,115.46Zm5.1-6.18-.79-.61q1.23-1.58,2.4-3.18l.81.59C86.08,107.16,85.27,108.23,84.45,109.28Zm4.74-6.46-.82-.57c.75-1.09,1.49-2.2,2.22-3.31l.84.55C90.7,100.61,90,101.72,89.19,102.82Zm4.38-6.73-.86-.52c.7-1.13,1.38-2.28,2-3.43l.87.5C95,93.8,94.27,95,93.57,96.09Zm4-7-.88-.47c.63-1.17,1.25-2.35,1.85-3.54l.89.45C98.83,86.77,98.21,88,97.57,89.13ZM101.21,82l-.91-.42c.57-1.21,1.13-2.42,1.67-3.63l.91.4C102.34,79.54,101.78,80.76,101.21,82Zm3.26-7.34-.92-.39c.51-1.22,1-2.46,1.48-3.7l.94.36C105.48,72.14,105,73.38,104.47,74.62Zm2.9-7.5-.94-.34c.45-1.25.89-2.51,1.31-3.78l1,.32C108.26,64.59,107.83,65.86,107.37,67.12Zm2.55-7.63-1-.3c.4-1.27.77-2.55,1.14-3.83l1,.27C110.69,56.92,110.31,58.21,109.92,59.49Zm2.19-7.74-1-.25c.33-1.29.65-2.59,1-3.89l1,.23C112.78,49.15,112.45,50.45,112.11,51.75ZM114,43.92l-1-.21c.28-1.3.55-2.61.8-3.92l1,.19C114.52,41.3,114.25,42.61,114,43.92ZM115.5,36l-1-.17c.23-1.31.44-2.63.64-4l1,.15C115.94,33.38,115.72,34.7,115.5,36Zm1.2-8-1-.13c.17-1.32.33-2.65.48-4l1,.11C117,25.41,116.87,26.74,116.7,28.07Zm.89-8-1-.09q.19-2,.33-4l1,.08C117.82,17.4,117.71,18.74,117.59,20.07Zm.58-8-1-.05c.07-1.33.13-2.67.18-4l1,0C118.31,9.38,118.25,10.72,118.17,12.05Zm.29-8-1,0c0-1.33,0-2.67,0-4h1C118.5,1.34,118.49,2.68,118.46,4Z" fill="url(#b)"/></svg>