<svg width="53" height="43" viewBox="0 0 53 43" fill="none" xmlns="http://www.w3.org/2000/svg">
<path d="M48.5293 4.50915C44.901 0.849575 39.6528 -0.653463 33.8215 0.26143C31.3594 0.653527 28.8973 1.50308 26.5 2.67937C24.1675 1.50308 21.7054 0.653527 19.1785 0.26143C13.3472 -0.653463 8.09904 0.849575 4.47069 4.50915C0.842328 8.16872 -0.64789 13.462 0.2592 19.3435C1.1015 24.7675 3.95235 30.1915 8.29342 34.5699C11.9218 38.2295 16.3276 40.8435 20.8631 42.1505C22.5477 42.6733 24.3619 43 26.2408 43C26.3056 43 26.3704 43 26.5 43C26.5648 43 26.6296 43 26.7592 43C28.6381 43 30.4523 42.7386 32.1369 42.1505C36.6724 40.9088 41.0134 38.2948 44.7066 34.5699C49.0476 30.1915 51.8985 24.7675 52.7408 19.3435C53.6479 13.462 52.1577 8.16872 48.5293 4.50915ZM42.5036 25.0289C42.4388 24.5714 42.4389 24.114 42.3093 23.6566C41.7261 20.0623 40.3007 16.5335 38.2274 13.266C36.2836 13.1353 32.4609 14.9651 31.4242 16.8602C35.5061 22.6763 36.2188 29.538 32.72 33.0669C31.9425 33.8511 30.9706 34.4392 29.8692 34.8313C28.7029 35.1581 27.6015 35.2888 26.5 35.3541C25.3985 35.3541 24.2971 35.1581 23.1308 34.8313C19.8912 33.9818 16.5868 32.0866 13.736 29.2113C12.4401 27.9043 11.3386 26.5319 10.4964 25.0942C7.06237 19.5395 6.67362 13.3313 9.91323 10.0639C12.0514 7.90732 15.4206 7.38453 18.9841 8.16872C20.8631 8.62617 22.8716 9.41037 24.7506 10.5867C25.3337 10.9788 25.9169 11.3708 26.5 11.7629C28.8973 9.93316 31.489 8.69151 34.0159 8.10337C34.923 7.90732 35.8949 7.77662 36.7371 7.77662C36.8667 7.77662 36.9315 7.77662 37.0611 7.77662C39.4584 7.77662 41.5966 8.49546 43.0868 9.9985C46.3912 13.266 45.9376 19.4742 42.5036 25.0289Z" fill="#FF4D40"/>
</svg>
